<mxfile host="app.diagrams.net" modified="2023-06-19T09:57:12.369Z" agent="Mozilla/5.0 (Windows NT 10.0; Win64; x64) AppleWebKit/537.36 (KHTML, like Gecko) Chrome/114.0.0.0 Safari/537.36" etag="hBofCYmVZPMvNNhGQ_ZF" version="21.5.0" type="device">
  <diagram name="Pagina-1" id="All7uzV2OwWNBoKM_PWa">
    <mxGraphModel dx="1050" dy="1660" grid="0" gridSize="10" guides="1" tooltips="1" connect="1" arrows="1" fold="1" page="1" pageScale="1" pageWidth="1654" pageHeight="1169" background="#ffffff" math="0" shadow="0">
      <root>
        <mxCell id="0" />
        <mxCell id="1" parent="0" />
        <mxCell id="IGpdcPXpx3QODBAOmaDT-8" value="SCUOLA" style="rounded=1;whiteSpace=wrap;html=1;shadow=0;glass=0;points=[[0,0,0,0,0],[0,0.25,0,0,0],[0,0.5,0,0,0],[0,0.75,0,0,0],[0,1,0,0,0],[0.25,0,0,0,0],[0.25,1,0,0,0],[0.5,0,0,0,0],[0.5,1,0,0,0],[0.75,0,0,0,0],[0.75,1,0,0,0],[1,0,0,0,0],[1,0.25,0,0,0],[1,0.5,0,0,0],[1,0.75,0,0,0],[1,1,0,0,0]];fontSize=15;labelBackgroundColor=none;fillColor=#FAE5C7;strokeColor=#0F8B8D;fontColor=#143642;" parent="1" vertex="1">
          <mxGeometry x="1360.25" y="-438" width="182.5" height="40" as="geometry" />
        </mxCell>
        <mxCell id="EM07TJdLQ4tKNasi6T0R-9" style="edgeStyle=orthogonalEdgeStyle;rounded=0;orthogonalLoop=1;jettySize=auto;html=1;exitX=0.25;exitY=1;exitDx=0;exitDy=0;exitPerimeter=0;entryX=1;entryY=0.5;entryDx=0;entryDy=0;strokeColor=#A8201A;fontColor=default;fillColor=#FAE5C7;endArrow=none;endFill=0;labelBackgroundColor=none;" parent="1" source="IGpdcPXpx3QODBAOmaDT-12" target="nj4AOBOk8mtP1z4zq-uT-6" edge="1">
          <mxGeometry relative="1" as="geometry" />
        </mxCell>
        <mxCell id="IGpdcPXpx3QODBAOmaDT-12" value="PERSONA" style="whiteSpace=wrap;html=1;rounded=1;shadow=0;glass=0;fontSize=15;points=[[0,0,0,0,0],[0,0.25,0,0,0],[0,0.5,0,0,0],[0,0.75,0,0,0],[0,1,0,0,0],[0.25,0,0,0,0],[0.25,1,0,0,0],[0.5,0,0,0,0],[0.5,1,0,0,0],[0.75,0,0,0,0],[0.75,1,0,0,0],[1,0,0,0,0],[1,0.25,0,0,0],[1,0.5,0,0,0],[1,0.75,0,0,0],[1,1,0,0,0]];labelBackgroundColor=none;fillColor=#FAE5C7;strokeColor=#0F8B8D;fontColor=#143642;" parent="1" vertex="1">
          <mxGeometry x="724" y="-438" width="114" height="40" as="geometry" />
        </mxCell>
        <mxCell id="IGpdcPXpx3QODBAOmaDT-101" value="Possiede" style="rhombus;whiteSpace=wrap;html=1;fontFamily=Helvetica;fontSize=15;labelBackgroundColor=none;rounded=1;fillColor=#FAE5C7;strokeColor=#0F8B8D;fontColor=#143642;" parent="1" vertex="1">
          <mxGeometry x="1459.25" y="-588" width="87.5" height="70" as="geometry" />
        </mxCell>
        <mxCell id="2ZxViYWchOxOmelXp1Hh-58" style="edgeStyle=none;shape=connector;rounded=1;orthogonalLoop=1;jettySize=auto;html=1;exitX=0;exitY=0.5;exitDx=0;exitDy=0;exitPerimeter=0;entryX=1;entryY=0.5;entryDx=0;entryDy=0;labelBackgroundColor=none;fontFamily=Helvetica;fontSize=15;fontColor=default;endArrow=none;endFill=0;strokeColor=#A8201A;" parent="1" source="IGpdcPXpx3QODBAOmaDT-103" edge="1">
          <mxGeometry relative="1" as="geometry">
            <mxPoint x="1289.5" y="-651" as="targetPoint" />
          </mxGeometry>
        </mxCell>
        <mxCell id="IGpdcPXpx3QODBAOmaDT-103" value="ORTO" style="rounded=1;whiteSpace=wrap;html=1;shadow=0;glass=0;points=[[0,0,0,0,0],[0,0.25,0,0,0],[0,0.5,0,0,0],[0,0.75,0,0,0],[0,1,0,0,0],[0.25,0,0,0,0],[0.25,1,0,0,0],[0.5,0,0,0,0],[0.5,1,0,0,0],[0.75,0,0,0,0],[0.75,1,0,0,0],[1,0,0,0,0],[1,0.25,0,0,0],[1,0.5,0,0,0],[1,0.75,0,0,0],[1,1,0,0,0]];fontSize=15;labelBackgroundColor=none;fillColor=#FAE5C7;strokeColor=#0F8B8D;fontColor=#143642;" parent="1" vertex="1">
          <mxGeometry x="1366.75" y="-671" width="181" height="40" as="geometry" />
        </mxCell>
        <mxCell id="IGpdcPXpx3QODBAOmaDT-109" style="edgeStyle=none;shape=connector;rounded=1;orthogonalLoop=1;jettySize=auto;html=1;entryX=0.623;entryY=0.961;entryDx=0;entryDy=0;entryPerimeter=0;labelBackgroundColor=none;fontFamily=Helvetica;fontSize=15;fontColor=default;endArrow=none;endFill=0;exitX=0.521;exitY=0.068;exitDx=0;exitDy=0;strokeColor=#A8201A;exitPerimeter=0;" parent="1" source="2ZxViYWchOxOmelXp1Hh-26" target="IGpdcPXpx3QODBAOmaDT-8" edge="1">
          <mxGeometry relative="1" as="geometry" />
        </mxCell>
        <mxCell id="IGpdcPXpx3QODBAOmaDT-114" style="edgeStyle=none;shape=connector;rounded=1;orthogonalLoop=1;jettySize=auto;html=1;labelBackgroundColor=none;fontFamily=Helvetica;fontSize=15;fontColor=default;endArrow=oval;endFill=0;strokeColor=#A8201A;entryX=0.112;entryY=0.187;entryDx=0;entryDy=0;entryPerimeter=0;exitX=1;exitY=0;exitDx=0;exitDy=0;exitPerimeter=0;" parent="1" source="IGpdcPXpx3QODBAOmaDT-111" target="IGpdcPXpx3QODBAOmaDT-113" edge="1">
          <mxGeometry relative="1" as="geometry">
            <mxPoint x="1396" y="-78" as="sourcePoint" />
            <mxPoint x="1493" y="-50" as="targetPoint" />
            <Array as="points" />
          </mxGeometry>
        </mxCell>
        <mxCell id="IGpdcPXpx3QODBAOmaDT-118" style="edgeStyle=none;shape=connector;rounded=1;orthogonalLoop=1;jettySize=auto;html=1;labelBackgroundColor=none;fontFamily=Helvetica;fontSize=15;fontColor=default;endArrow=oval;endFill=0;strokeColor=#A8201A;exitX=0.75;exitY=1;exitDx=0;exitDy=0;exitPerimeter=0;entryX=0.614;entryY=-0.15;entryDx=0;entryDy=0;entryPerimeter=0;" parent="1" source="IGpdcPXpx3QODBAOmaDT-111" target="IGpdcPXpx3QODBAOmaDT-115" edge="1">
          <mxGeometry relative="1" as="geometry">
            <mxPoint x="1464.5" y="-134" as="sourcePoint" />
            <mxPoint x="1530" y="14" as="targetPoint" />
            <Array as="points" />
          </mxGeometry>
        </mxCell>
        <mxCell id="IGpdcPXpx3QODBAOmaDT-120" style="edgeStyle=none;shape=connector;rounded=1;orthogonalLoop=1;jettySize=auto;html=1;exitX=0.25;exitY=1;exitDx=0;exitDy=0;exitPerimeter=0;labelBackgroundColor=none;fontFamily=Helvetica;fontSize=15;fontColor=default;endArrow=oval;endFill=0;strokeColor=#A8201A;entryX=0.517;entryY=-0.204;entryDx=0;entryDy=0;entryPerimeter=0;" parent="1" source="IGpdcPXpx3QODBAOmaDT-111" target="IGpdcPXpx3QODBAOmaDT-116" edge="1">
          <mxGeometry relative="1" as="geometry">
            <mxPoint x="1486.9" y="-132.4000000000001" as="sourcePoint" />
            <mxPoint x="1456" y="-36" as="targetPoint" />
          </mxGeometry>
        </mxCell>
        <mxCell id="IGpdcPXpx3QODBAOmaDT-111" value="CLASSE" style="rounded=1;whiteSpace=wrap;html=1;shadow=0;glass=0;points=[[0,0,0,0,0],[0,0.25,0,0,0],[0,0.5,0,0,0],[0,0.75,0,0,0],[0,1,0,0,0],[0.25,0,0,0,0],[0.25,1,0,0,0],[0.5,0,0,0,0],[0.5,1,0,0,0],[0.75,0,0,0,0],[0.75,1,0,0,0],[1,0,0,0,0],[1,0.25,0,0,0],[1,0.5,0,0,0],[1,0.75,0,0,0],[1,1,0,0,0]];fontSize=15;labelBackgroundColor=none;fillColor=#FAE5C7;strokeColor=#0F8B8D;fontColor=#143642;" parent="1" vertex="1">
          <mxGeometry x="1421.75" y="-124" width="100" height="40" as="geometry" />
        </mxCell>
        <mxCell id="IGpdcPXpx3QODBAOmaDT-113" value="Nome" style="text;html=1;align=center;verticalAlign=middle;resizable=0;points=[];autosize=1;strokeColor=none;fillColor=none;fontSize=15;fontFamily=Helvetica;labelBackgroundColor=none;rounded=1;fontColor=#143642;arcSize=50;" parent="1" vertex="1">
          <mxGeometry x="1548" y="-149" width="60" height="30" as="geometry" />
        </mxCell>
        <mxCell id="IGpdcPXpx3QODBAOmaDT-115" value="Ordine" style="text;html=1;align=center;verticalAlign=middle;resizable=0;points=[];autosize=1;strokeColor=none;fillColor=none;fontSize=15;fontFamily=Helvetica;labelBackgroundColor=none;rounded=1;fontColor=#143642;arcSize=50;" parent="1" vertex="1">
          <mxGeometry x="1455.5" y="-66" width="70" height="30" as="geometry" />
        </mxCell>
        <mxCell id="IGpdcPXpx3QODBAOmaDT-116" value="TipoScuola" style="text;html=1;align=center;verticalAlign=middle;resizable=0;points=[];autosize=1;strokeColor=none;fillColor=none;fontSize=15;fontFamily=Helvetica;labelBackgroundColor=none;rounded=1;fontColor=#143642;" parent="1" vertex="1">
          <mxGeometry x="1399.75" y="-49" width="92" height="30" as="geometry" />
        </mxCell>
        <mxCell id="9Mot5vRxFBjQDdBxqjVs-2" value="Contiene" style="rhombus;whiteSpace=wrap;html=1;fontSize=15;labelBackgroundColor=none;rounded=1;fillColor=#FAE5C7;strokeColor=#0F8B8D;fontColor=#143642;" parent="1" vertex="1">
          <mxGeometry x="1226.5" y="-680" width="90" height="60" as="geometry" />
        </mxCell>
        <mxCell id="9Mot5vRxFBjQDdBxqjVs-57" value="Effettuata" style="rhombus;whiteSpace=wrap;html=1;fontSize=15;labelBackgroundColor=none;rounded=1;fillColor=#FAE5C7;strokeColor=#0F8B8D;fontColor=#143642;" parent="1" vertex="1">
          <mxGeometry x="711.0000000000002" y="-661.5" width="91.5" height="67" as="geometry" />
        </mxCell>
        <mxCell id="TdYUr1XkgakKkLenXr9e-14" style="edgeStyle=orthogonalEdgeStyle;rounded=0;orthogonalLoop=1;jettySize=auto;html=1;exitX=0.25;exitY=1;exitDx=0;exitDy=0;exitPerimeter=0;entryX=0.94;entryY=0.512;entryDx=0;entryDy=0;strokeColor=#A8201A;fontColor=default;fillColor=#FAE5C7;endArrow=none;endFill=0;entryPerimeter=0;labelBackgroundColor=none;" parent="1" source="9Mot5vRxFBjQDdBxqjVs-58" target="TdYUr1XkgakKkLenXr9e-12" edge="1">
          <mxGeometry relative="1" as="geometry">
            <Array as="points">
              <mxPoint x="544" y="-498" />
            </Array>
          </mxGeometry>
        </mxCell>
        <mxCell id="DWErfUBjFAyUowsWWpwN-9" style="edgeStyle=orthogonalEdgeStyle;rounded=0;orthogonalLoop=1;jettySize=auto;html=1;exitX=0.5;exitY=1;exitDx=0;exitDy=0;exitPerimeter=0;entryX=0.5;entryY=0;entryDx=0;entryDy=0;fillColor=#FAE5C7;strokeColor=#A8201A;endArrow=none;endFill=0;labelBackgroundColor=none;fontColor=default;" parent="1" source="9Mot5vRxFBjQDdBxqjVs-58" target="DWErfUBjFAyUowsWWpwN-8" edge="1">
          <mxGeometry relative="1" as="geometry">
            <Array as="points">
              <mxPoint x="574" y="-445" />
              <mxPoint x="501" y="-445" />
            </Array>
          </mxGeometry>
        </mxCell>
        <mxCell id="KmzG-ObylcXIyJbmqewU-10" style="edgeStyle=orthogonalEdgeStyle;rounded=0;orthogonalLoop=1;jettySize=auto;html=1;exitX=1;exitY=0.5;exitDx=0;exitDy=0;exitPerimeter=0;entryX=0;entryY=0.5;entryDx=0;entryDy=0;fillColor=#FAE5C7;strokeColor=#A8201A;endArrow=none;endFill=0;labelBackgroundColor=none;fontColor=default;" parent="1" source="9Mot5vRxFBjQDdBxqjVs-58" target="9Mot5vRxFBjQDdBxqjVs-57" edge="1">
          <mxGeometry relative="1" as="geometry" />
        </mxCell>
        <mxCell id="9Mot5vRxFBjQDdBxqjVs-58" value="RILEVAZIONE" style="whiteSpace=wrap;html=1;rounded=1;shadow=0;glass=0;fontSize=15;points=[[0,0,0,0,0],[0,0.25,0,0,0],[0,0.5,0,0,0],[0,0.75,0,0,0],[0,1,0,0,0],[0.25,0,0,0,0],[0.25,1,0,0,0],[0.5,0,0,0,0],[0.5,1,0,0,0],[0.75,0,0,0,0],[0.75,1,0,0,0],[1,0,0,0,0],[1,0.25,0,0,0],[1,0.5,0,0,0],[1,0.75,0,0,0],[1,1,0,0,0]];movable=1;resizable=1;rotatable=1;deletable=1;editable=1;locked=0;connectable=1;labelBackgroundColor=none;fillColor=#FAE5C7;strokeColor=#0F8B8D;fontColor=#143642;" parent="1" vertex="1">
          <mxGeometry x="514" y="-648" width="121" height="40" as="geometry" />
        </mxCell>
        <mxCell id="9Mot5vRxFBjQDdBxqjVs-64" value="&lt;font style=&quot;font-size: 12px;&quot;&gt;Adatto: True - False&lt;br&gt;&lt;br&gt;Ruolo:&amp;nbsp; Docente, Dirigente, Referente, Rilevatore Esterno&lt;br&gt;&lt;br&gt;Scopo:&amp;nbsp; Biomonitoraggio - Fitobonifica&lt;br&gt;&lt;br&gt;Substrato: Terriccio Rinvaso - Suolo Pre-esistente&lt;br&gt;&lt;br&gt;Collocazione: Vaso - Terra&lt;br&gt;&lt;br&gt;Sensore: Scheda_Arduino - Sensore&lt;br&gt;&lt;br&gt;Acquisizione:&amp;nbsp; Arduino - App&amp;nbsp;&lt;br&gt;&lt;br&gt;TipoGruppo:&amp;nbsp; Pulito&amp;nbsp; o&amp;nbsp; Inquinato&lt;/font&gt;" style="rounded=1;whiteSpace=wrap;html=1;fontFamily=Helvetica;fontSize=11;labelBackgroundColor=none;fillColor=#FAE5C7;strokeColor=#0F8B8D;fontColor=#143642;" parent="1" vertex="1">
          <mxGeometry x="25.80999999999989" y="-1143" width="394.38" height="281" as="geometry" />
        </mxCell>
        <mxCell id="9Mot5vRxFBjQDdBxqjVs-66" value="&lt;span style=&quot;font-size: 15px;&quot;&gt;Ph&lt;/span&gt;" style="text;html=1;align=center;verticalAlign=middle;resizable=0;points=[];autosize=1;strokeColor=none;fillColor=none;fontSize=15;fontFamily=Helvetica;labelBackgroundColor=none;rounded=1;fontColor=#143642;" parent="1" vertex="1">
          <mxGeometry x="25.810000000000002" y="-568" width="40" height="30" as="geometry" />
        </mxCell>
        <mxCell id="9Mot5vRxFBjQDdBxqjVs-67" value="&lt;span style=&quot;font-size: 15px;&quot;&gt;Umidità&lt;/span&gt;" style="text;html=1;align=center;verticalAlign=middle;resizable=0;points=[];autosize=1;strokeColor=none;fillColor=none;fontSize=15;fontFamily=Helvetica;labelBackgroundColor=none;rounded=1;fontColor=#143642;" parent="1" vertex="1">
          <mxGeometry x="25.810000000000002" y="-603" width="70" height="30" as="geometry" />
        </mxCell>
        <mxCell id="9Mot5vRxFBjQDdBxqjVs-78" value="Docente" style="rhombus;whiteSpace=wrap;html=1;rounded=1;shadow=0;glass=0;fontSize=15;align=center;verticalAlign=middle;labelBackgroundColor=none;fillColor=#FAE5C7;strokeColor=#0F8B8D;fontColor=#143642;" parent="1" vertex="1">
          <mxGeometry x="701" y="-134" width="160" height="60" as="geometry" />
        </mxCell>
        <mxCell id="DWErfUBjFAyUowsWWpwN-4" style="edgeStyle=orthogonalEdgeStyle;rounded=0;orthogonalLoop=1;jettySize=auto;html=1;exitX=0.5;exitY=1;exitDx=0;exitDy=0;entryX=0.75;entryY=0;entryDx=0;entryDy=0;entryPerimeter=0;endArrow=none;endFill=0;fillColor=#FAE5C7;strokeColor=#A8201A;labelBackgroundColor=none;fontColor=default;" parent="1" source="9Mot5vRxFBjQDdBxqjVs-86" target="DWErfUBjFAyUowsWWpwN-1" edge="1">
          <mxGeometry relative="1" as="geometry">
            <Array as="points">
              <mxPoint x="652" y="-264" />
              <mxPoint x="346" y="-264" />
            </Array>
          </mxGeometry>
        </mxCell>
        <mxCell id="9Mot5vRxFBjQDdBxqjVs-86" value="Identificato" style="rhombus;whiteSpace=wrap;html=1;fontSize=15;labelBackgroundColor=none;rounded=1;fillColor=#FAE5C7;strokeColor=#0F8B8D;fontColor=#143642;" parent="1" vertex="1">
          <mxGeometry x="602" y="-347" width="99" height="60" as="geometry" />
        </mxCell>
        <mxCell id="TdYUr1XkgakKkLenXr9e-53" style="edgeStyle=orthogonalEdgeStyle;rounded=0;orthogonalLoop=1;jettySize=auto;html=1;exitX=0;exitY=0.5;exitDx=0;exitDy=0;exitPerimeter=0;strokeColor=#A8201A;fontColor=default;fillColor=#FAE5C7;endArrow=oval;endFill=1;labelBackgroundColor=none;" parent="1" source="9Mot5vRxFBjQDdBxqjVs-103" target="KA5vXZ2nPaFK-a-9JE_G-93" edge="1">
          <mxGeometry relative="1" as="geometry" />
        </mxCell>
        <mxCell id="9Mot5vRxFBjQDdBxqjVs-103" value="SENSORE" style="whiteSpace=wrap;html=1;rounded=1;shadow=0;glass=0;fontSize=15;points=[[0,0,0,0,0],[0,0.25,0,0,0],[0,0.5,0,0,0],[0,0.75,0,0,0],[0,1,0,0,0],[0.25,0,0,0,0],[0.25,1,0,0,0],[0.5,0,0,0,0],[0.5,1,0,0,0],[0.75,0,0,0,0],[0.75,1,0,0,0],[1,0,0,0,0],[1,0.25,0,0,0],[1,0.5,0,0,0],[1,0.75,0,0,0],[1,1,0,0,0]];movable=1;resizable=1;rotatable=1;deletable=1;editable=1;locked=0;connectable=1;labelBackgroundColor=none;fillColor=#FAE5C7;strokeColor=#0F8B8D;fontColor=#143642;" parent="1" vertex="1">
          <mxGeometry x="524.5" y="-850" width="100" height="40" as="geometry" />
        </mxCell>
        <mxCell id="9Mot5vRxFBjQDdBxqjVs-104" value="Rilevata" style="rhombus;whiteSpace=wrap;html=1;rounded=1;shadow=0;glass=0;fontSize=15;align=center;labelBackgroundColor=none;fillColor=#FAE5C7;strokeColor=#0F8B8D;fontColor=#143642;" parent="1" vertex="1">
          <mxGeometry x="524.5" y="-770.5" width="100" height="82" as="geometry" />
        </mxCell>
        <mxCell id="2ZxViYWchOxOmelXp1Hh-9" value="Utilizza" style="rhombus;whiteSpace=wrap;html=1;fontFamily=Helvetica;fontSize=15;labelBackgroundColor=none;rounded=1;fillColor=#FAE5C7;strokeColor=#0F8B8D;fontColor=#143642;" parent="1" vertex="1">
          <mxGeometry x="1368" y="-549" width="87.5" height="70" as="geometry" />
        </mxCell>
        <mxCell id="2ZxViYWchOxOmelXp1Hh-26" value="Afferisce" style="rhombus;whiteSpace=wrap;html=1;fontFamily=Helvetica;fontSize=15;align=center;verticalAlign=middle;labelBackgroundColor=none;rounded=1;fillColor=#FAE5C7;strokeColor=#0F8B8D;fontColor=#143642;" parent="1" vertex="1">
          <mxGeometry x="1411.5" y="-306" width="120" height="71" as="geometry" />
        </mxCell>
        <mxCell id="2ZxViYWchOxOmelXp1Hh-42" value="SPECIE" style="rounded=1;whiteSpace=wrap;html=1;shadow=0;glass=0;points=[[0,0,0,0,0],[0,0.25,0,0,0],[0,0.5,0,0,0],[0,0.75,0,0,0],[0,1,0,0,0],[0.25,0,0,0,0],[0.25,1,0,0,0],[0.5,0,0,0,0],[0.5,1,0,0,0],[0.75,0,0,0,0],[0.75,1,0,0,0],[1,0,0,0,0],[1,0.25,0,0,0],[1,0.5,0,0,0],[1,0.75,0,0,0],[1,1,0,0,0]];fontSize=15;labelBackgroundColor=none;fillColor=#FAE5C7;strokeColor=#0F8B8D;fontColor=#143642;" parent="1" vertex="1">
          <mxGeometry x="996.0000000000002" y="-670" width="160" height="40" as="geometry" />
        </mxCell>
        <mxCell id="2ZxViYWchOxOmelXp1Hh-57" style="edgeStyle=none;shape=connector;rounded=1;orthogonalLoop=1;jettySize=auto;html=1;exitX=0.5;exitY=1;exitDx=0;exitDy=0;labelBackgroundColor=none;fontFamily=Helvetica;fontSize=15;fontColor=default;endArrow=oval;endFill=0;strokeColor=#A8201A;" parent="1" source="9Mot5vRxFBjQDdBxqjVs-104" target="9Mot5vRxFBjQDdBxqjVs-104" edge="1">
          <mxGeometry relative="1" as="geometry" />
        </mxCell>
        <mxCell id="2ZxViYWchOxOmelXp1Hh-59" value="GRUPPO" style="whiteSpace=wrap;html=1;rounded=1;shadow=0;glass=0;fontSize=15;points=[[0,0,0,0,0],[0,0.25,0,0,0],[0,0.5,0,0,0],[0,0.75,0,0,0],[0,1,0,0,0],[0.25,0,0,0,0],[0.25,1,0,0,0],[0.5,0,0,0,0],[0.5,1,0,0,0],[0.75,0,0,0,0],[0.75,1,0,0,0],[1,0,0,0,0],[1,0.25,0,0,0],[1,0.5,0,0,0],[1,0.75,0,0,0],[1,1,0,0,0]];movable=1;resizable=1;rotatable=1;deletable=1;editable=1;locked=0;connectable=1;labelBackgroundColor=none;fillColor=#FAE5C7;strokeColor=#0F8B8D;fontColor=#143642;" parent="1" vertex="1">
          <mxGeometry x="880" y="-1035" width="100" height="40" as="geometry" />
        </mxCell>
        <mxCell id="2ZxViYWchOxOmelXp1Hh-60" value="Contenuta" style="rhombus;whiteSpace=wrap;html=1;fontSize=15;labelBackgroundColor=none;rounded=1;fillColor=#FAE5C7;strokeColor=#0F8B8D;fontColor=#143642;" parent="1" vertex="1">
          <mxGeometry x="880.0000000000002" y="-941" width="100" height="46.5" as="geometry" />
        </mxCell>
        <mxCell id="Dx_CMPOLSW68eJcPcujk-1" value="Referente" style="rhombus;whiteSpace=wrap;html=1;fontFamily=Helvetica;fontSize=15;align=center;verticalAlign=middle;labelBackgroundColor=none;rounded=1;fillColor=#FAE5C7;strokeColor=#0F8B8D;fontColor=#143642;" parent="1" vertex="1">
          <mxGeometry x="1086.5000000000002" y="-222" width="140" height="71" as="geometry" />
        </mxCell>
        <mxCell id="Dx_CMPOLSW68eJcPcujk-4" style="edgeStyle=orthogonalEdgeStyle;rounded=1;orthogonalLoop=1;jettySize=auto;html=1;exitX=0.5;exitY=1;exitDx=0;exitDy=0;labelBackgroundColor=none;strokeColor=#A8201A;fontColor=default;" parent="1" source="Dx_CMPOLSW68eJcPcujk-1" target="Dx_CMPOLSW68eJcPcujk-1" edge="1">
          <mxGeometry relative="1" as="geometry" />
        </mxCell>
        <mxCell id="Dx_CMPOLSW68eJcPcujk-12" value="PIANTA" style="rounded=1;whiteSpace=wrap;html=1;shadow=0;glass=0;points=[[0,0,0,0,0],[0,0.25,0,0,0],[0,0.5,0,0,0],[0,0.75,0,0,0],[0,1,0,0,0],[0.25,0,0,0,0],[0.25,1,0,0,0],[0.5,0,0,0,0],[0.5,1,0,0,0],[0.75,0,0,0,0],[0.75,1,0,0,0],[1,0,0,0,0],[1,0.25,0,0,0],[1,0.5,0,0,0],[1,0.75,0,0,0],[1,1,0,0,0]];fontSize=15;labelBackgroundColor=none;fillColor=#FAE5C7;strokeColor=#0F8B8D;fontColor=#143642;" parent="1" vertex="1">
          <mxGeometry x="850.0000000000002" y="-829" width="160" height="40" as="geometry" />
        </mxCell>
        <mxCell id="EM07TJdLQ4tKNasi6T0R-7" style="edgeStyle=orthogonalEdgeStyle;rounded=0;orthogonalLoop=1;jettySize=auto;html=1;exitX=0.5;exitY=0;exitDx=0;exitDy=0;entryX=0.5;entryY=1;entryDx=0;entryDy=0;entryPerimeter=0;strokeColor=#A8201A;fontColor=default;fillColor=#FAE5C7;endArrow=none;endFill=0;labelBackgroundColor=none;" parent="1" source="Dx_CMPOLSW68eJcPcujk-19" target="Dx_CMPOLSW68eJcPcujk-12" edge="1">
          <mxGeometry relative="1" as="geometry" />
        </mxCell>
        <mxCell id="EM07TJdLQ4tKNasi6T0R-8" style="edgeStyle=orthogonalEdgeStyle;rounded=0;orthogonalLoop=1;jettySize=auto;html=1;exitX=0.5;exitY=1;exitDx=0;exitDy=0;entryX=0;entryY=0.5;entryDx=0;entryDy=0;entryPerimeter=0;strokeColor=#A8201A;fontColor=default;fillColor=#FAE5C7;endArrow=none;endFill=0;labelBackgroundColor=none;" parent="1" source="Dx_CMPOLSW68eJcPcujk-19" target="2ZxViYWchOxOmelXp1Hh-42" edge="1">
          <mxGeometry relative="1" as="geometry" />
        </mxCell>
        <mxCell id="Dx_CMPOLSW68eJcPcujk-19" value="Include" style="rhombus;whiteSpace=wrap;html=1;fontSize=15;labelBackgroundColor=none;rounded=1;fillColor=#FAE5C7;strokeColor=#0F8B8D;fontColor=#143642;" parent="1" vertex="1">
          <mxGeometry x="884.2500000000002" y="-749" width="91.5" height="67" as="geometry" />
        </mxCell>
        <mxCell id="EM07TJdLQ4tKNasi6T0R-6" style="edgeStyle=orthogonalEdgeStyle;rounded=0;orthogonalLoop=1;jettySize=auto;html=1;exitX=1;exitY=0.5;exitDx=0;exitDy=0;strokeColor=#A8201A;fontColor=default;fillColor=#FAE5C7;entryX=0.25;entryY=0;entryDx=0;entryDy=0;entryPerimeter=0;endArrow=none;endFill=0;labelBackgroundColor=none;" parent="1" source="Dx_CMPOLSW68eJcPcujk-28" target="IGpdcPXpx3QODBAOmaDT-103" edge="1">
          <mxGeometry relative="1" as="geometry">
            <mxPoint x="1375.095238095238" y="-715.5714285714286" as="targetPoint" />
            <Array as="points">
              <mxPoint x="1412" y="-809" />
            </Array>
          </mxGeometry>
        </mxCell>
        <mxCell id="Dx_CMPOLSW68eJcPcujk-28" value="Ospita" style="rhombus;whiteSpace=wrap;html=1;fontSize=15;labelBackgroundColor=none;rounded=1;fillColor=#FAE5C7;strokeColor=#0F8B8D;fontColor=#143642;" parent="1" vertex="1">
          <mxGeometry x="1205" y="-839" width="90" height="60" as="geometry" />
        </mxCell>
        <mxCell id="Dx_CMPOLSW68eJcPcujk-40" value="Coltiva*" style="rhombus;whiteSpace=wrap;html=1;fontSize=15;labelBackgroundColor=none;rounded=1;fillColor=#FAE5C7;strokeColor=#0F8B8D;fontColor=#143642;" parent="1" vertex="1">
          <mxGeometry x="1228.38" y="-964" width="90.25" height="60" as="geometry" />
        </mxCell>
        <mxCell id="77c9ratOZqriTQwKT7vz-7" value="*Classe che l&#39;ha messa a dimora" style="shape=card;whiteSpace=wrap;html=1;size=31;rounded=1;labelBackgroundColor=none;fillColor=#FAE5C7;strokeColor=#0F8B8D;fontColor=#143642;" parent="1" vertex="1">
          <mxGeometry x="1321" y="-1000" width="242" height="48" as="geometry" />
        </mxCell>
        <mxCell id="77c9ratOZqriTQwKT7vz-8" style="edgeStyle=orthogonalEdgeStyle;rounded=1;orthogonalLoop=1;jettySize=auto;html=1;exitX=0.5;exitY=1;exitDx=0;exitDy=0;exitPerimeter=0;labelBackgroundColor=none;strokeColor=#A8201A;fontColor=default;" parent="1" source="77c9ratOZqriTQwKT7vz-7" target="77c9ratOZqriTQwKT7vz-7" edge="1">
          <mxGeometry relative="1" as="geometry" />
        </mxCell>
        <mxCell id="KA5vXZ2nPaFK-a-9JE_G-16" value="" style="endArrow=none;html=1;rounded=0;entryX=0.5;entryY=1;entryDx=0;entryDy=0;exitX=0.5;exitY=0;exitDx=0;exitDy=0;exitPerimeter=0;labelBackgroundColor=none;strokeColor=#A8201A;fontColor=default;" parent="1" source="IGpdcPXpx3QODBAOmaDT-111" target="2ZxViYWchOxOmelXp1Hh-26" edge="1">
          <mxGeometry width="50" height="50" relative="1" as="geometry">
            <mxPoint x="1427" y="-148" as="sourcePoint" />
            <mxPoint x="1159" y="-417" as="targetPoint" />
          </mxGeometry>
        </mxCell>
        <mxCell id="KA5vXZ2nPaFK-a-9JE_G-18" value="" style="endArrow=none;html=1;rounded=0;entryX=0;entryY=0.5;entryDx=0;entryDy=0;entryPerimeter=0;exitX=0.5;exitY=0;exitDx=0;exitDy=0;labelBackgroundColor=none;strokeColor=#A8201A;fontColor=default;edgeStyle=orthogonalEdgeStyle;" parent="1" source="9Mot5vRxFBjQDdBxqjVs-86" target="IGpdcPXpx3QODBAOmaDT-12" edge="1">
          <mxGeometry width="50" height="50" relative="1" as="geometry">
            <mxPoint x="1456" y="-313" as="sourcePoint" />
            <mxPoint x="1506" y="-363" as="targetPoint" />
          </mxGeometry>
        </mxCell>
        <mxCell id="KA5vXZ2nPaFK-a-9JE_G-20" value="" style="endArrow=none;html=1;rounded=0;entryX=0;entryY=0.5;entryDx=0;entryDy=0;exitX=1;exitY=0.5;exitDx=0;exitDy=0;exitPerimeter=0;labelBackgroundColor=none;strokeColor=#A8201A;fontColor=default;" parent="1" source="2ZxViYWchOxOmelXp1Hh-42" target="9Mot5vRxFBjQDdBxqjVs-2" edge="1">
          <mxGeometry width="50" height="50" relative="1" as="geometry">
            <mxPoint x="1148" y="-976" as="sourcePoint" />
            <mxPoint x="1201.5" y="-650" as="targetPoint" />
          </mxGeometry>
        </mxCell>
        <mxCell id="KA5vXZ2nPaFK-a-9JE_G-21" value="" style="endArrow=none;html=1;rounded=0;entryX=0;entryY=0.5;entryDx=0;entryDy=0;entryPerimeter=0;exitX=0.959;exitY=0.495;exitDx=0;exitDy=0;labelBackgroundColor=none;strokeColor=#A8201A;fontColor=default;exitPerimeter=0;" parent="1" source="9Mot5vRxFBjQDdBxqjVs-78" target="IGpdcPXpx3QODBAOmaDT-111" edge="1">
          <mxGeometry width="50" height="50" relative="1" as="geometry">
            <mxPoint x="1173" y="-475" as="sourcePoint" />
            <mxPoint x="1223" y="-525" as="targetPoint" />
          </mxGeometry>
        </mxCell>
        <mxCell id="KA5vXZ2nPaFK-a-9JE_G-23" value="" style="endArrow=none;html=1;rounded=0;entryX=0;entryY=0.5;entryDx=0;entryDy=0;entryPerimeter=0;exitX=0.93;exitY=0.517;exitDx=0;exitDy=0;labelBackgroundColor=none;strokeColor=#A8201A;fontColor=default;exitPerimeter=0;" parent="1" source="INVqEnxePdasgGOuT_wJ-2" target="IGpdcPXpx3QODBAOmaDT-8" edge="1">
          <mxGeometry width="50" height="50" relative="1" as="geometry">
            <mxPoint x="1322" y="-418" as="sourcePoint" />
            <mxPoint x="1467" y="-350" as="targetPoint" />
            <Array as="points" />
          </mxGeometry>
        </mxCell>
        <mxCell id="KA5vXZ2nPaFK-a-9JE_G-30" value="" style="endArrow=none;html=1;rounded=0;entryX=0.5;entryY=1;entryDx=0;entryDy=0;entryPerimeter=0;exitX=0.5;exitY=0;exitDx=0;exitDy=0;labelBackgroundColor=none;strokeColor=#A8201A;fontColor=default;" parent="1" source="9Mot5vRxFBjQDdBxqjVs-104" target="9Mot5vRxFBjQDdBxqjVs-103" edge="1">
          <mxGeometry width="50" height="50" relative="1" as="geometry">
            <mxPoint x="1369" y="-794" as="sourcePoint" />
            <mxPoint x="1419" y="-844" as="targetPoint" />
          </mxGeometry>
        </mxCell>
        <mxCell id="KA5vXZ2nPaFK-a-9JE_G-31" value="" style="endArrow=none;html=1;rounded=0;exitX=0.5;exitY=0;exitDx=0;exitDy=0;exitPerimeter=0;entryX=0.5;entryY=1;entryDx=0;entryDy=0;labelBackgroundColor=none;strokeColor=#A8201A;fontColor=default;" parent="1" source="9Mot5vRxFBjQDdBxqjVs-58" target="9Mot5vRxFBjQDdBxqjVs-104" edge="1">
          <mxGeometry width="50" height="50" relative="1" as="geometry">
            <mxPoint x="1369" y="-794" as="sourcePoint" />
            <mxPoint x="1419" y="-844" as="targetPoint" />
          </mxGeometry>
        </mxCell>
        <mxCell id="KA5vXZ2nPaFK-a-9JE_G-33" value="" style="endArrow=none;html=1;rounded=0;entryX=0.25;entryY=1;entryDx=0;entryDy=0;entryPerimeter=0;exitX=1;exitY=0.5;exitDx=0;exitDy=0;labelBackgroundColor=none;strokeColor=#A8201A;fontColor=default;" parent="1" source="9Mot5vRxFBjQDdBxqjVs-57" target="Dx_CMPOLSW68eJcPcujk-12" edge="1">
          <mxGeometry width="50" height="50" relative="1" as="geometry">
            <mxPoint x="1369" y="-794" as="sourcePoint" />
            <mxPoint x="1419" y="-844" as="targetPoint" />
            <Array as="points">
              <mxPoint x="867" y="-628" />
            </Array>
          </mxGeometry>
        </mxCell>
        <mxCell id="KA5vXZ2nPaFK-a-9JE_G-34" value="" style="endArrow=none;html=1;rounded=0;exitX=0.5;exitY=0;exitDx=0;exitDy=0;entryX=0.5;entryY=1;entryDx=0;entryDy=0;entryPerimeter=0;strokeColor=#A8201A;labelBackgroundColor=none;fontColor=default;" parent="1" source="9Mot5vRxFBjQDdBxqjVs-78" target="IGpdcPXpx3QODBAOmaDT-12" edge="1">
          <mxGeometry width="50" height="50" relative="1" as="geometry">
            <mxPoint x="896" y="-254" as="sourcePoint" />
            <mxPoint x="946" y="-304" as="targetPoint" />
          </mxGeometry>
        </mxCell>
        <mxCell id="KA5vXZ2nPaFK-a-9JE_G-38" value="" style="endArrow=none;html=1;rounded=0;exitX=0.036;exitY=0.496;exitDx=0;exitDy=0;entryX=1;entryY=0.5;entryDx=0;entryDy=0;entryPerimeter=0;labelBackgroundColor=none;strokeColor=#A8201A;fontColor=default;exitPerimeter=0;" parent="1" source="Dx_CMPOLSW68eJcPcujk-28" target="Dx_CMPOLSW68eJcPcujk-12" edge="1">
          <mxGeometry width="50" height="50" relative="1" as="geometry">
            <mxPoint x="1051" y="-1071" as="sourcePoint" />
            <mxPoint x="1101" y="-1121" as="targetPoint" />
          </mxGeometry>
        </mxCell>
        <mxCell id="KA5vXZ2nPaFK-a-9JE_G-40" value="" style="endArrow=none;html=1;rounded=0;entryX=0.5;entryY=1;entryDx=0;entryDy=0;entryPerimeter=0;exitX=0.5;exitY=0;exitDx=0;exitDy=0;labelBackgroundColor=none;strokeColor=#A8201A;fontColor=default;" parent="1" source="2ZxViYWchOxOmelXp1Hh-60" target="2ZxViYWchOxOmelXp1Hh-59" edge="1">
          <mxGeometry width="50" height="50" relative="1" as="geometry">
            <mxPoint x="1344" y="-644" as="sourcePoint" />
            <mxPoint x="1394" y="-694" as="targetPoint" />
          </mxGeometry>
        </mxCell>
        <mxCell id="KA5vXZ2nPaFK-a-9JE_G-41" value="" style="endArrow=none;html=1;rounded=0;entryX=0.5;entryY=1;entryDx=0;entryDy=0;exitX=0.5;exitY=0;exitDx=0;exitDy=0;exitPerimeter=0;labelBackgroundColor=none;strokeColor=#A8201A;fontColor=default;" parent="1" source="Dx_CMPOLSW68eJcPcujk-12" target="2ZxViYWchOxOmelXp1Hh-60" edge="1">
          <mxGeometry width="50" height="50" relative="1" as="geometry">
            <mxPoint x="1344" y="-910" as="sourcePoint" />
            <mxPoint x="1394" y="-960" as="targetPoint" />
          </mxGeometry>
        </mxCell>
        <mxCell id="KA5vXZ2nPaFK-a-9JE_G-42" value="" style="endArrow=none;html=1;rounded=0;entryX=0.25;entryY=1;entryDx=0;entryDy=0;entryPerimeter=0;exitX=0.5;exitY=0;exitDx=0;exitDy=0;labelBackgroundColor=none;strokeColor=#A8201A;fontColor=default;" parent="1" source="2ZxViYWchOxOmelXp1Hh-9" target="IGpdcPXpx3QODBAOmaDT-103" edge="1">
          <mxGeometry width="50" height="50" relative="1" as="geometry">
            <mxPoint x="1270" y="-733" as="sourcePoint" />
            <mxPoint x="1320" y="-783" as="targetPoint" />
          </mxGeometry>
        </mxCell>
        <mxCell id="KA5vXZ2nPaFK-a-9JE_G-44" value="" style="endArrow=none;html=1;rounded=0;exitX=0.493;exitY=0.971;exitDx=0;exitDy=0;labelBackgroundColor=none;strokeColor=#A8201A;fontColor=default;entryX=0.279;entryY=0.048;entryDx=0;entryDy=0;entryPerimeter=0;exitPerimeter=0;" parent="1" source="2ZxViYWchOxOmelXp1Hh-9" target="IGpdcPXpx3QODBAOmaDT-8" edge="1">
          <mxGeometry width="50" height="50" relative="1" as="geometry">
            <mxPoint x="1270" y="-733" as="sourcePoint" />
            <mxPoint x="1412" y="-443" as="targetPoint" />
          </mxGeometry>
        </mxCell>
        <mxCell id="KA5vXZ2nPaFK-a-9JE_G-47" value="" style="endArrow=none;html=1;rounded=0;entryX=0.505;entryY=0.947;entryDx=0;entryDy=0;labelBackgroundColor=none;strokeColor=#A8201A;fontColor=default;entryPerimeter=0;" parent="1" target="IGpdcPXpx3QODBAOmaDT-101" edge="1">
          <mxGeometry width="50" height="50" relative="1" as="geometry">
            <mxPoint x="1503" y="-440" as="sourcePoint" />
            <mxPoint x="1320" y="-783" as="targetPoint" />
          </mxGeometry>
        </mxCell>
        <mxCell id="KA5vXZ2nPaFK-a-9JE_G-49" value="" style="endArrow=none;html=1;rounded=0;entryX=0.49;entryY=0.053;entryDx=0;entryDy=0;exitX=0.75;exitY=1;exitDx=0;exitDy=0;exitPerimeter=0;labelBackgroundColor=none;strokeColor=#A8201A;fontColor=default;entryPerimeter=0;" parent="1" source="IGpdcPXpx3QODBAOmaDT-103" target="IGpdcPXpx3QODBAOmaDT-101" edge="1">
          <mxGeometry width="50" height="50" relative="1" as="geometry">
            <mxPoint x="1270" y="-733" as="sourcePoint" />
            <mxPoint x="1320" y="-783" as="targetPoint" />
          </mxGeometry>
        </mxCell>
        <mxCell id="KA5vXZ2nPaFK-a-9JE_G-52" style="edgeStyle=orthogonalEdgeStyle;rounded=1;orthogonalLoop=1;jettySize=auto;html=1;entryX=0.909;entryY=-0.062;entryDx=0;entryDy=0;entryPerimeter=0;fontFamily=Helvetica;fontSize=15;fontColor=default;endArrow=none;endFill=0;labelBackgroundColor=none;exitX=0;exitY=0.5;exitDx=0;exitDy=0;strokeColor=#A8201A;" parent="1" source="Dx_CMPOLSW68eJcPcujk-40" target="Dx_CMPOLSW68eJcPcujk-12" edge="1">
          <mxGeometry relative="1" as="geometry">
            <mxPoint x="1753" y="-1824" as="sourcePoint" />
            <mxPoint x="1597" y="-1537" as="targetPoint" />
            <Array as="points">
              <mxPoint x="995" y="-934" />
              <mxPoint x="995" y="-832" />
            </Array>
          </mxGeometry>
        </mxCell>
        <mxCell id="KA5vXZ2nPaFK-a-9JE_G-53" style="edgeStyle=orthogonalEdgeStyle;rounded=1;orthogonalLoop=1;jettySize=auto;html=1;entryX=1;entryY=0.5;entryDx=0;entryDy=0;fontFamily=Helvetica;fontSize=15;fontColor=default;endArrow=none;endFill=0;labelBackgroundColor=none;strokeColor=#A8201A;exitX=1;exitY=0.5;exitDx=0;exitDy=0;exitPerimeter=0;" parent="1" source="IGpdcPXpx3QODBAOmaDT-111" target="Dx_CMPOLSW68eJcPcujk-40" edge="1">
          <mxGeometry relative="1" as="geometry">
            <mxPoint x="1920" y="-749" as="sourcePoint" />
            <mxPoint x="1838" y="-1459" as="targetPoint" />
            <Array as="points">
              <mxPoint x="1522" y="-103" />
              <mxPoint x="1643" y="-103" />
              <mxPoint x="1643" y="-934" />
            </Array>
          </mxGeometry>
        </mxCell>
        <mxCell id="KA5vXZ2nPaFK-a-9JE_G-56" style="edgeStyle=orthogonalEdgeStyle;rounded=1;orthogonalLoop=1;jettySize=auto;html=1;entryX=1;entryY=0.5;entryDx=0;entryDy=0;fontFamily=Helvetica;fontSize=15;fontColor=default;endArrow=none;endFill=0;labelBackgroundColor=none;exitX=0.25;exitY=1;exitDx=0;exitDy=0;strokeColor=#A8201A;exitPerimeter=0;" parent="1" source="IGpdcPXpx3QODBAOmaDT-8" target="Dx_CMPOLSW68eJcPcujk-1" edge="1">
          <mxGeometry relative="1" as="geometry">
            <mxPoint x="1618" y="-317" as="sourcePoint" />
            <mxPoint x="1462" y="-30" as="targetPoint" />
            <Array as="points">
              <mxPoint x="1406" y="-186" />
            </Array>
          </mxGeometry>
        </mxCell>
        <mxCell id="KA5vXZ2nPaFK-a-9JE_G-61" style="edgeStyle=orthogonalEdgeStyle;rounded=1;orthogonalLoop=1;jettySize=auto;html=1;entryX=0;entryY=0.5;entryDx=0;entryDy=0;fontFamily=Helvetica;fontSize=15;fontColor=default;endArrow=none;endFill=0;labelBackgroundColor=none;exitX=0.75;exitY=1;exitDx=0;exitDy=0;strokeColor=#A8201A;exitPerimeter=0;" parent="1" source="IGpdcPXpx3QODBAOmaDT-12" target="Dx_CMPOLSW68eJcPcujk-1" edge="1">
          <mxGeometry relative="1" as="geometry">
            <mxPoint x="1013" y="-288" as="sourcePoint" />
            <mxPoint x="857" y="-1" as="targetPoint" />
            <Array as="points">
              <mxPoint x="813" y="-187" />
            </Array>
          </mxGeometry>
        </mxCell>
        <mxCell id="KA5vXZ2nPaFK-a-9JE_G-63" value="Ciclo_Istruzione" style="text;html=1;align=center;verticalAlign=middle;resizable=0;points=[];autosize=1;strokeColor=none;fillColor=none;fontSize=15;fontFamily=Helvetica;labelBackgroundColor=none;rounded=1;fontColor=#143642;" parent="1" vertex="1">
          <mxGeometry x="1506.5" y="-510" width="125" height="30" as="geometry" />
        </mxCell>
        <mxCell id="KA5vXZ2nPaFK-a-9JE_G-64" value="cod_Meccanografico" style="text;html=1;align=center;verticalAlign=middle;resizable=0;points=[];autosize=1;strokeColor=none;fillColor=none;fontSize=15;fontFamily=Helvetica;labelBackgroundColor=none;rounded=1;fontColor=#143642;rotation=90;" parent="1" vertex="1">
          <mxGeometry x="1494" y="-290" width="160" height="30" as="geometry" />
        </mxCell>
        <mxCell id="KA5vXZ2nPaFK-a-9JE_G-65" value="Collabora" style="text;html=1;align=center;verticalAlign=middle;resizable=0;points=[];autosize=1;strokeColor=none;fillColor=none;fontSize=15;fontFamily=Helvetica;labelBackgroundColor=none;rounded=1;fontColor=#143642;" parent="1" vertex="1">
          <mxGeometry x="1558" y="-450" width="90" height="30" as="geometry" />
        </mxCell>
        <mxCell id="KA5vXZ2nPaFK-a-9JE_G-67" value="Tipo" style="text;html=1;align=center;verticalAlign=middle;resizable=0;points=[];autosize=1;strokeColor=none;fillColor=none;fontSize=15;fontFamily=Helvetica;labelBackgroundColor=none;rotation=0;rounded=1;fontColor=#143642;" parent="1" vertex="1">
          <mxGeometry x="1562.75" y="-425" width="50" height="30" as="geometry" />
        </mxCell>
        <mxCell id="KA5vXZ2nPaFK-a-9JE_G-68" value="Comune" style="text;html=1;align=center;verticalAlign=middle;resizable=0;points=[];autosize=1;strokeColor=none;fillColor=none;fontSize=15;fontFamily=Helvetica;labelBackgroundColor=none;rounded=1;fontColor=#143642;" parent="1" vertex="1">
          <mxGeometry x="1556" y="-473" width="80" height="30" as="geometry" />
        </mxCell>
        <mxCell id="KA5vXZ2nPaFK-a-9JE_G-69" value="Temperatura" style="text;html=1;align=center;verticalAlign=middle;resizable=0;points=[];autosize=1;strokeColor=none;fillColor=none;fontSize=15;fontFamily=Helvetica;labelBackgroundColor=none;rounded=1;fontColor=#143642;" parent="1" vertex="1">
          <mxGeometry x="264.5" y="-445" width="102" height="30" as="geometry" />
        </mxCell>
        <mxCell id="KA5vXZ2nPaFK-a-9JE_G-77" style="edgeStyle=none;shape=connector;rounded=1;orthogonalLoop=1;jettySize=auto;html=1;exitX=0;exitY=0.75;exitDx=0;exitDy=0;labelBackgroundColor=none;fontFamily=Helvetica;fontSize=15;fontColor=default;endArrow=oval;endFill=0;strokeColor=#A8201A;entryX=0.55;entryY=0.011;entryDx=0;entryDy=0;entryPerimeter=0;exitPerimeter=0;" parent="1" source="9Mot5vRxFBjQDdBxqjVs-58" target="KA5vXZ2nPaFK-a-9JE_G-80" edge="1">
          <mxGeometry relative="1" as="geometry">
            <mxPoint x="238" y="-234" as="targetPoint" />
            <mxPoint x="361.0380592228744" y="-475.85786437626916" as="sourcePoint" />
          </mxGeometry>
        </mxCell>
        <mxCell id="KA5vXZ2nPaFK-a-9JE_G-80" value="&lt;span style=&quot;font-size: 15px;&quot;&gt;Struttura&lt;/span&gt;" style="text;html=1;align=center;verticalAlign=middle;resizable=0;points=[];autosize=1;strokeColor=none;fillColor=none;fontSize=15;fontFamily=Helvetica;labelBackgroundColor=none;rounded=1;fontColor=#143642;" parent="1" vertex="1">
          <mxGeometry x="421" y="-612" width="80" height="30" as="geometry" />
        </mxCell>
        <mxCell id="KA5vXZ2nPaFK-a-9JE_G-83" style="edgeStyle=none;shape=connector;rounded=1;orthogonalLoop=1;jettySize=auto;html=1;entryX=0.835;entryY=1.051;entryDx=0;entryDy=0;entryPerimeter=0;labelBackgroundColor=none;fontFamily=Helvetica;fontSize=15;fontColor=default;endArrow=oval;endFill=0;strokeColor=#A8201A;exitX=0;exitY=0.5;exitDx=0;exitDy=0;exitPerimeter=0;" parent="1" source="9Mot5vRxFBjQDdBxqjVs-58" target="KA5vXZ2nPaFK-a-9JE_G-87" edge="1">
          <mxGeometry relative="1" as="geometry">
            <mxPoint x="513" y="-614" as="sourcePoint" />
            <mxPoint x="380.15999999999985" y="-606.69" as="targetPoint" />
            <Array as="points" />
          </mxGeometry>
        </mxCell>
        <mxCell id="KA5vXZ2nPaFK-a-9JE_G-84" style="edgeStyle=none;shape=connector;rounded=1;orthogonalLoop=1;jettySize=auto;html=1;labelBackgroundColor=none;fontFamily=Helvetica;fontSize=15;fontColor=default;endArrow=oval;endFill=0;entryX=0.818;entryY=1;entryDx=0;entryDy=0;entryPerimeter=0;strokeColor=#A8201A;exitX=0;exitY=0.25;exitDx=0;exitDy=0;exitPerimeter=0;" parent="1" source="9Mot5vRxFBjQDdBxqjVs-58" target="KA5vXZ2nPaFK-a-9JE_G-86" edge="1">
          <mxGeometry relative="1" as="geometry">
            <mxPoint x="480" y="-667" as="sourcePoint" />
          </mxGeometry>
        </mxCell>
        <mxCell id="KA5vXZ2nPaFK-a-9JE_G-86" value="&lt;span style=&quot;font-size: 15px;&quot;&gt;DataOra_Inserimento&lt;/span&gt;" style="text;html=1;align=center;verticalAlign=middle;resizable=0;points=[];autosize=1;strokeColor=none;fillColor=none;fontSize=15;fontFamily=Helvetica;labelBackgroundColor=none;rounded=1;fontColor=#143642;" parent="1" vertex="1">
          <mxGeometry x="346" y="-690" width="170" height="30" as="geometry" />
        </mxCell>
        <mxCell id="KA5vXZ2nPaFK-a-9JE_G-87" value="&lt;span style=&quot;font-size: 15px;&quot;&gt;DataOra_Rilevazione&lt;/span&gt;" style="text;html=1;align=center;verticalAlign=middle;resizable=0;points=[];autosize=1;strokeColor=none;fillColor=none;fontSize=15;fontFamily=Helvetica;labelBackgroundColor=none;rounded=1;fontColor=#143642;" parent="1" vertex="1">
          <mxGeometry x="323" y="-660" width="170" height="30" as="geometry" />
        </mxCell>
        <mxCell id="KA5vXZ2nPaFK-a-9JE_G-89" value="&lt;span style=&quot;font-size: 15px;&quot;&gt;ID&lt;/span&gt;" style="text;html=1;align=center;verticalAlign=middle;resizable=0;points=[];autosize=1;strokeColor=none;fillColor=none;fontSize=15;fontFamily=Helvetica;labelBackgroundColor=none;rounded=1;fontColor=#143642;arcSize=0;" parent="1" vertex="1">
          <mxGeometry x="504.5" y="-693" width="33" height="30" as="geometry" />
        </mxCell>
        <mxCell id="KA5vXZ2nPaFK-a-9JE_G-92" value="&lt;span style=&quot;font-size: 15px;&quot;&gt;TipoSensore&lt;/span&gt;" style="text;html=1;align=center;verticalAlign=middle;resizable=0;points=[];autosize=1;strokeColor=none;fillColor=none;fontSize=15;fontFamily=Helvetica;labelBackgroundColor=none;rounded=1;fontColor=#143642;" parent="1" vertex="1">
          <mxGeometry x="498" y="-892" width="103" height="30" as="geometry" />
        </mxCell>
        <mxCell id="KA5vXZ2nPaFK-a-9JE_G-93" value="&lt;span style=&quot;font-size: 15px;&quot;&gt;ID&lt;/span&gt;" style="text;html=1;align=center;verticalAlign=middle;resizable=0;points=[];autosize=1;strokeColor=none;fillColor=none;fontSize=15;fontFamily=Helvetica;labelBackgroundColor=none;rounded=1;fontColor=#143642;" parent="1" vertex="1">
          <mxGeometry x="452" y="-845" width="40" height="30" as="geometry" />
        </mxCell>
        <mxCell id="KA5vXZ2nPaFK-a-9JE_G-94" value="&lt;span style=&quot;font-size: 15px;&quot;&gt;TipoAcquisizione&lt;br&gt;&lt;/span&gt;" style="text;html=1;align=center;verticalAlign=middle;resizable=0;points=[];autosize=1;strokeColor=none;fillColor=none;fontSize=15;fontFamily=Helvetica;labelBackgroundColor=none;rounded=1;fontColor=#143642;" parent="1" vertex="1">
          <mxGeometry x="534" y="-922" width="131" height="30" as="geometry" />
        </mxCell>
        <mxCell id="KA5vXZ2nPaFK-a-9JE_G-96" style="edgeStyle=none;shape=connector;rounded=1;orthogonalLoop=1;jettySize=auto;html=1;entryX=0.384;entryY=1.002;entryDx=0;entryDy=0;entryPerimeter=0;labelBackgroundColor=none;fontFamily=Helvetica;fontSize=15;fontColor=default;endArrow=oval;endFill=0;strokeColor=#A8201A;exitX=0.25;exitY=0;exitDx=0;exitDy=0;exitPerimeter=0;" parent="1" source="9Mot5vRxFBjQDdBxqjVs-103" target="KA5vXZ2nPaFK-a-9JE_G-92" edge="1">
          <mxGeometry relative="1" as="geometry">
            <mxPoint x="524.5" y="-891" as="sourcePoint" />
            <mxPoint x="418.5" y="-875" as="targetPoint" />
            <Array as="points" />
          </mxGeometry>
        </mxCell>
        <mxCell id="KA5vXZ2nPaFK-a-9JE_G-97" style="edgeStyle=none;shape=connector;rounded=1;orthogonalLoop=1;jettySize=auto;html=1;labelBackgroundColor=none;fontFamily=Helvetica;fontSize=15;fontColor=default;endArrow=oval;endFill=0;strokeColor=#A8201A;exitX=0.75;exitY=0;exitDx=0;exitDy=0;exitPerimeter=0;" parent="1" source="9Mot5vRxFBjQDdBxqjVs-103" target="KA5vXZ2nPaFK-a-9JE_G-94" edge="1">
          <mxGeometry relative="1" as="geometry">
            <mxPoint x="560" y="-840" as="sourcePoint" />
            <mxPoint x="602" y="-884" as="targetPoint" />
            <Array as="points" />
          </mxGeometry>
        </mxCell>
        <mxCell id="KA5vXZ2nPaFK-a-9JE_G-98" value="&lt;span style=&quot;font-size: 15px;&quot;&gt;ID&lt;/span&gt;" style="text;html=1;align=center;verticalAlign=middle;resizable=0;points=[];autosize=1;strokeColor=none;fillColor=none;fontSize=15;fontFamily=Helvetica;labelBackgroundColor=none;rounded=1;fontColor=#143642;" parent="1" vertex="1">
          <mxGeometry x="884.25" y="-1092" width="40" height="30" as="geometry" />
        </mxCell>
        <mxCell id="KA5vXZ2nPaFK-a-9JE_G-99" style="edgeStyle=none;shape=connector;rounded=1;orthogonalLoop=1;jettySize=auto;html=1;labelBackgroundColor=none;fontFamily=Helvetica;fontSize=15;fontColor=default;endArrow=oval;endFill=0;strokeColor=#A8201A;exitX=0.75;exitY=0;exitDx=0;exitDy=0;exitPerimeter=0;entryX=0.324;entryY=1.123;entryDx=0;entryDy=0;entryPerimeter=0;" parent="1" source="2ZxViYWchOxOmelXp1Hh-59" target="KA5vXZ2nPaFK-a-9JE_G-102" edge="1">
          <mxGeometry relative="1" as="geometry">
            <mxPoint x="954" y="-1040" as="sourcePoint" />
            <mxPoint x="955" y="-1060" as="targetPoint" />
            <Array as="points" />
          </mxGeometry>
        </mxCell>
        <mxCell id="KA5vXZ2nPaFK-a-9JE_G-102" value="&lt;span style=&quot;font-size: 15px;&quot;&gt;Tipo&lt;/span&gt;" style="text;html=1;align=center;verticalAlign=middle;resizable=0;points=[];autosize=1;strokeColor=none;fillColor=none;fontSize=15;fontFamily=Helvetica;labelBackgroundColor=none;rounded=1;fontColor=#143642;" parent="1" vertex="1">
          <mxGeometry x="939" y="-1099" width="50" height="30" as="geometry" />
        </mxCell>
        <mxCell id="KA5vXZ2nPaFK-a-9JE_G-104" value="&lt;span style=&quot;font-size: 15px;&quot;&gt;NumeroReplica&lt;/span&gt;" style="text;html=1;align=center;verticalAlign=middle;resizable=0;points=[];autosize=1;strokeColor=none;fillColor=none;fontSize=15;fontFamily=Helvetica;labelBackgroundColor=none;rounded=1;fontColor=#143642;arcSize=0;rotation=0;" parent="1" vertex="1">
          <mxGeometry x="729" y="-875" width="121" height="30" as="geometry" />
        </mxCell>
        <mxCell id="KA5vXZ2nPaFK-a-9JE_G-110" style="edgeStyle=none;shape=connector;rounded=1;orthogonalLoop=1;jettySize=auto;html=1;labelBackgroundColor=none;fontFamily=Helvetica;fontSize=15;fontColor=default;endArrow=oval;endFill=0;strokeColor=#A8201A;exitX=0.078;exitY=0.053;exitDx=0;exitDy=0;exitPerimeter=0;entryX=0.506;entryY=0.974;entryDx=0;entryDy=0;entryPerimeter=0;" parent="1" source="Dx_CMPOLSW68eJcPcujk-12" target="KA5vXZ2nPaFK-a-9JE_G-104" edge="1">
          <mxGeometry relative="1" as="geometry">
            <mxPoint x="874.3510000000001" y="-845.77" as="sourcePoint" />
            <mxPoint x="795" y="-842" as="targetPoint" />
          </mxGeometry>
        </mxCell>
        <mxCell id="KA5vXZ2nPaFK-a-9JE_G-115" style="edgeStyle=none;shape=connector;rounded=1;orthogonalLoop=1;jettySize=auto;html=1;exitX=0.25;exitY=0;exitDx=0;exitDy=0;exitPerimeter=0;labelBackgroundColor=none;fontFamily=Helvetica;fontSize=15;fontColor=default;endArrow=oval;endFill=1;strokeColor=#A8201A;entryX=0.537;entryY=1.033;entryDx=0;entryDy=0;entryPerimeter=0;" parent="1" source="2ZxViYWchOxOmelXp1Hh-59" target="KA5vXZ2nPaFK-a-9JE_G-98" edge="1">
          <mxGeometry relative="1" as="geometry">
            <mxPoint x="580" y="-1262" as="sourcePoint" />
            <mxPoint x="624" y="-1266" as="targetPoint" />
          </mxGeometry>
        </mxCell>
        <mxCell id="KA5vXZ2nPaFK-a-9JE_G-133" style="edgeStyle=none;shape=connector;rounded=1;orthogonalLoop=1;jettySize=auto;html=1;labelBackgroundColor=none;fontFamily=Helvetica;fontSize=15;fontColor=default;endArrow=oval;endFill=0;strokeColor=#A8201A;entryX=0.627;entryY=-0.002;entryDx=0;entryDy=0;entryPerimeter=0;exitX=0.087;exitY=1.028;exitDx=0;exitDy=0;exitPerimeter=0;" parent="1" source="Dx_CMPOLSW68eJcPcujk-12" target="KA5vXZ2nPaFK-a-9JE_G-135" edge="1">
          <mxGeometry relative="1" as="geometry">
            <mxPoint x="851" y="-828" as="sourcePoint" />
            <mxPoint x="859" y="-863" as="targetPoint" />
          </mxGeometry>
        </mxCell>
        <mxCell id="KA5vXZ2nPaFK-a-9JE_G-135" value="&lt;span style=&quot;font-size: 15px;&quot;&gt;Scopo&lt;br&gt;&lt;/span&gt;" style="text;html=1;align=center;verticalAlign=middle;resizable=0;points=[];autosize=1;strokeColor=none;fillColor=none;fontSize=15;fontFamily=Helvetica;labelBackgroundColor=none;rounded=1;fontColor=#143642;arcSize=0;rotation=0;" parent="1" vertex="1">
          <mxGeometry x="783" y="-767" width="61" height="30" as="geometry" />
        </mxCell>
        <mxCell id="KA5vXZ2nPaFK-a-9JE_G-137" value="Data_Messa_A_Dimora" style="text;html=1;align=center;verticalAlign=middle;resizable=0;points=[];autosize=1;strokeColor=none;fillColor=none;fontSize=15;fontFamily=Helvetica;labelBackgroundColor=none;rounded=1;fontColor=#143642;" parent="1" vertex="1">
          <mxGeometry x="953" y="-773" width="177" height="30" as="geometry" />
        </mxCell>
        <mxCell id="KA5vXZ2nPaFK-a-9JE_G-138" style="edgeStyle=none;shape=connector;rounded=1;orthogonalLoop=1;jettySize=auto;html=1;labelBackgroundColor=none;fontFamily=Helvetica;fontSize=15;fontColor=default;endArrow=oval;endFill=0;strokeColor=#A8201A;entryX=0.39;entryY=0.11;entryDx=0;entryDy=0;entryPerimeter=0;" parent="1" target="KA5vXZ2nPaFK-a-9JE_G-137" edge="1">
          <mxGeometry relative="1" as="geometry">
            <mxPoint x="943" y="-789" as="sourcePoint" />
            <mxPoint x="1202" y="-749" as="targetPoint" />
            <Array as="points" />
          </mxGeometry>
        </mxCell>
        <mxCell id="KA5vXZ2nPaFK-a-9JE_G-139" style="edgeStyle=none;shape=connector;rounded=1;orthogonalLoop=1;jettySize=auto;html=1;labelBackgroundColor=none;fontFamily=Helvetica;fontSize=15;fontColor=default;endArrow=oval;endFill=0;strokeColor=#A8201A;exitX=0.25;exitY=0;exitDx=0;exitDy=0;exitPerimeter=0;" parent="1" source="Dx_CMPOLSW68eJcPcujk-12" target="KA5vXZ2nPaFK-a-9JE_G-140" edge="1">
          <mxGeometry relative="1" as="geometry">
            <mxPoint x="1009" y="-792" as="sourcePoint" />
            <mxPoint x="1044" y="-789" as="targetPoint" />
            <Array as="points" />
          </mxGeometry>
        </mxCell>
        <mxCell id="KA5vXZ2nPaFK-a-9JE_G-140" value="Nome_Comune" style="text;html=1;align=center;verticalAlign=middle;resizable=0;points=[];autosize=1;strokeColor=none;fillColor=none;fontSize=15;fontFamily=Helvetica;labelBackgroundColor=none;rounded=1;fontColor=#143642;" parent="1" vertex="1">
          <mxGeometry x="752.75" y="-913" width="123" height="30" as="geometry" />
        </mxCell>
        <mxCell id="KA5vXZ2nPaFK-a-9JE_G-142" style="edgeStyle=none;shape=connector;rounded=1;orthogonalLoop=1;jettySize=auto;html=1;labelBackgroundColor=none;fontFamily=Helvetica;fontSize=15;fontColor=default;endArrow=oval;endFill=1;strokeColor=#A8201A;exitX=0.117;exitY=1.006;exitDx=0;exitDy=0;exitPerimeter=0;entryX=0.679;entryY=-0.143;entryDx=0;entryDy=0;entryPerimeter=0;" parent="1" source="2ZxViYWchOxOmelXp1Hh-42" target="KA5vXZ2nPaFK-a-9JE_G-143" edge="1">
          <mxGeometry relative="1" as="geometry">
            <mxPoint x="1018" y="-625" as="sourcePoint" />
            <mxPoint x="1014" y="-596" as="targetPoint" />
          </mxGeometry>
        </mxCell>
        <mxCell id="KA5vXZ2nPaFK-a-9JE_G-143" value="&lt;span style=&quot;font-size: 15px;&quot;&gt;Nome_Scientifico&lt;/span&gt;" style="text;html=1;align=center;verticalAlign=middle;resizable=0;points=[];autosize=1;strokeColor=none;fillColor=none;fontSize=15;fontFamily=Helvetica;labelBackgroundColor=none;rounded=1;fontColor=#143642;arcSize=0;rotation=0;" parent="1" vertex="1">
          <mxGeometry x="923.25" y="-610" width="135" height="30" as="geometry" />
        </mxCell>
        <mxCell id="KA5vXZ2nPaFK-a-9JE_G-144" style="edgeStyle=none;shape=connector;rounded=1;orthogonalLoop=1;jettySize=auto;html=1;labelBackgroundColor=none;fontFamily=Helvetica;fontSize=15;fontColor=default;endArrow=oval;endFill=0;strokeColor=#A8201A;entryX=0.463;entryY=-0.027;entryDx=0;entryDy=0;entryPerimeter=0;exitX=0.68;exitY=0.988;exitDx=0;exitDy=0;exitPerimeter=0;" parent="1" source="2ZxViYWchOxOmelXp1Hh-42" target="KA5vXZ2nPaFK-a-9JE_G-145" edge="1">
          <mxGeometry relative="1" as="geometry">
            <mxPoint x="1131" y="-626" as="sourcePoint" />
            <mxPoint x="1132" y="-583" as="targetPoint" />
            <Array as="points" />
          </mxGeometry>
        </mxCell>
        <mxCell id="KA5vXZ2nPaFK-a-9JE_G-145" value="&lt;span style=&quot;font-size: 15px;&quot;&gt;Substrato&lt;br&gt;&lt;/span&gt;" style="text;html=1;align=center;verticalAlign=middle;resizable=0;points=[];autosize=1;strokeColor=none;fillColor=none;fontSize=15;fontFamily=Helvetica;labelBackgroundColor=none;rounded=1;fontColor=#143642;arcSize=0;rotation=0;" parent="1" vertex="1">
          <mxGeometry x="1067" y="-611" width="82" height="30" as="geometry" />
        </mxCell>
        <mxCell id="KA5vXZ2nPaFK-a-9JE_G-151" style="edgeStyle=none;shape=connector;rounded=1;orthogonalLoop=1;jettySize=auto;html=1;labelBackgroundColor=none;fontFamily=Helvetica;fontSize=15;fontColor=default;endArrow=oval;endFill=0;entryX=0.076;entryY=0.475;entryDx=0;entryDy=0;entryPerimeter=0;strokeColor=#A8201A;exitX=1;exitY=0.5;exitDx=0;exitDy=0;exitPerimeter=0;" parent="1" source="IGpdcPXpx3QODBAOmaDT-103" target="KA5vXZ2nPaFK-a-9JE_G-161" edge="1">
          <mxGeometry relative="1" as="geometry">
            <mxPoint x="1625" y="-734" as="sourcePoint" />
            <mxPoint x="1679" y="-793" as="targetPoint" />
          </mxGeometry>
        </mxCell>
        <mxCell id="KA5vXZ2nPaFK-a-9JE_G-152" style="edgeStyle=none;shape=connector;rounded=1;orthogonalLoop=1;jettySize=auto;html=1;exitX=1;exitY=0.75;exitDx=0;exitDy=0;exitPerimeter=0;labelBackgroundColor=none;fontFamily=Helvetica;fontSize=15;fontColor=default;endArrow=oval;endFill=0;entryX=0.002;entryY=0.459;entryDx=0;entryDy=0;entryPerimeter=0;strokeColor=#A8201A;" parent="1" source="IGpdcPXpx3QODBAOmaDT-103" target="KA5vXZ2nPaFK-a-9JE_G-155" edge="1">
          <mxGeometry relative="1" as="geometry">
            <mxPoint x="1713" y="-795" as="targetPoint" />
          </mxGeometry>
        </mxCell>
        <mxCell id="KA5vXZ2nPaFK-a-9JE_G-153" style="edgeStyle=none;shape=connector;rounded=1;orthogonalLoop=1;jettySize=auto;html=1;labelBackgroundColor=none;fontFamily=Helvetica;fontSize=15;fontColor=default;endArrow=oval;endFill=0;strokeColor=#A8201A;" parent="1" target="KA5vXZ2nPaFK-a-9JE_G-154" edge="1">
          <mxGeometry relative="1" as="geometry">
            <mxPoint x="1504" y="-671" as="sourcePoint" />
            <mxPoint x="1669" y="-825" as="targetPoint" />
          </mxGeometry>
        </mxCell>
        <mxCell id="KA5vXZ2nPaFK-a-9JE_G-154" value="Posizione" style="text;html=1;align=center;verticalAlign=middle;resizable=0;points=[];autosize=1;strokeColor=none;fillColor=none;fontSize=15;fontFamily=Helvetica;labelBackgroundColor=none;rounded=1;fontColor=#143642;" parent="1" vertex="1">
          <mxGeometry x="1491.75" y="-729" width="83" height="30" as="geometry" />
        </mxCell>
        <mxCell id="KA5vXZ2nPaFK-a-9JE_G-155" value="Coodinate_GPS" style="text;html=1;align=center;verticalAlign=middle;resizable=0;points=[];autosize=1;strokeColor=none;fillColor=none;fontSize=15;fontFamily=Helvetica;labelBackgroundColor=none;rounded=1;fontColor=#143642;rotation=90;" parent="1" vertex="1">
          <mxGeometry x="1534.25" y="-592" width="130" height="30" as="geometry" />
        </mxCell>
        <mxCell id="KA5vXZ2nPaFK-a-9JE_G-156" value="Superficie_mq" style="text;html=1;align=center;verticalAlign=middle;resizable=0;points=[];autosize=1;strokeColor=none;fillColor=none;fontSize=15;fontFamily=Helvetica;labelBackgroundColor=none;rounded=1;fontColor=#143642;" parent="1" vertex="1">
          <mxGeometry x="1450.75" y="-754" width="120" height="30" as="geometry" />
        </mxCell>
        <mxCell id="KA5vXZ2nPaFK-a-9JE_G-158" value="Condizione_Ambientale" style="text;html=1;align=center;verticalAlign=middle;resizable=0;points=[];autosize=1;strokeColor=none;fillColor=none;fontSize=15;fontFamily=Helvetica;labelBackgroundColor=none;rounded=1;fontColor=#143642;" parent="1" vertex="1">
          <mxGeometry x="1420.75" y="-782" width="180" height="30" as="geometry" />
        </mxCell>
        <mxCell id="KA5vXZ2nPaFK-a-9JE_G-159" style="edgeStyle=none;rounded=1;orthogonalLoop=1;jettySize=auto;html=1;endArrow=oval;endFill=1;labelBackgroundColor=none;fontFamily=Helvetica;fontSize=15;fontColor=default;shape=connector;strokeColor=#A8201A;" parent="1" edge="1">
          <mxGeometry relative="1" as="geometry">
            <mxPoint x="1565" y="-674" as="targetPoint" />
            <mxPoint x="1564" y="-609" as="sourcePoint" />
          </mxGeometry>
        </mxCell>
        <mxCell id="KA5vXZ2nPaFK-a-9JE_G-160" style="edgeStyle=none;shape=connector;rounded=1;orthogonalLoop=1;jettySize=auto;html=1;exitX=0.663;exitY=-0.042;exitDx=0;exitDy=0;exitPerimeter=0;labelBackgroundColor=none;fontFamily=Helvetica;fontSize=15;fontColor=default;endArrow=oval;endFill=0;entryX=0.042;entryY=0.911;entryDx=0;entryDy=0;entryPerimeter=0;strokeColor=#A8201A;" parent="1" source="IGpdcPXpx3QODBAOmaDT-103" target="KA5vXZ2nPaFK-a-9JE_G-156" edge="1">
          <mxGeometry relative="1" as="geometry">
            <mxPoint x="1615" y="-794" as="sourcePoint" />
            <mxPoint x="1669" y="-805" as="targetPoint" />
          </mxGeometry>
        </mxCell>
        <mxCell id="KA5vXZ2nPaFK-a-9JE_G-161" value="Nome" style="text;html=1;align=center;verticalAlign=middle;resizable=0;points=[];autosize=1;strokeColor=none;fillColor=none;fontSize=15;fontFamily=Helvetica;labelBackgroundColor=none;rounded=1;fontColor=#143642;" parent="1" vertex="1">
          <mxGeometry x="1585" y="-666" width="60" height="30" as="geometry" />
        </mxCell>
        <mxCell id="KA5vXZ2nPaFK-a-9JE_G-162" style="edgeStyle=none;shape=connector;rounded=1;orthogonalLoop=1;jettySize=auto;html=1;exitX=0.87;exitY=0.025;exitDx=0;exitDy=0;exitPerimeter=0;labelBackgroundColor=none;fontFamily=Helvetica;fontSize=15;fontColor=default;endArrow=oval;endFill=0;strokeColor=#A8201A;entryX=0.099;entryY=0.989;entryDx=0;entryDy=0;entryPerimeter=0;" parent="1" source="IGpdcPXpx3QODBAOmaDT-8" target="KA5vXZ2nPaFK-a-9JE_G-63" edge="1">
          <mxGeometry relative="1" as="geometry">
            <mxPoint x="1538" y="-533" as="sourcePoint" />
            <mxPoint x="1486" y="-484" as="targetPoint" />
          </mxGeometry>
        </mxCell>
        <mxCell id="KA5vXZ2nPaFK-a-9JE_G-163" style="edgeStyle=none;shape=connector;rounded=1;orthogonalLoop=1;jettySize=auto;html=1;exitX=0.985;exitY=0.027;exitDx=0;exitDy=0;exitPerimeter=0;labelBackgroundColor=none;fontFamily=Helvetica;fontSize=15;fontColor=default;endArrow=oval;endFill=0;strokeColor=#A8201A;entryX=0.015;entryY=0.521;entryDx=0;entryDy=0;entryPerimeter=0;" parent="1" source="IGpdcPXpx3QODBAOmaDT-8" target="KA5vXZ2nPaFK-a-9JE_G-68" edge="1">
          <mxGeometry relative="1" as="geometry">
            <mxPoint x="1529" y="-428" as="sourcePoint" />
            <mxPoint x="1608" y="-457" as="targetPoint" />
          </mxGeometry>
        </mxCell>
        <mxCell id="KA5vXZ2nPaFK-a-9JE_G-164" style="edgeStyle=none;shape=connector;rounded=1;orthogonalLoop=1;jettySize=auto;html=1;exitX=1;exitY=0.25;exitDx=0;exitDy=0;exitPerimeter=0;labelBackgroundColor=none;fontFamily=Helvetica;fontSize=15;fontColor=default;endArrow=oval;endFill=0;entryX=0.016;entryY=0.51;entryDx=0;entryDy=0;entryPerimeter=0;strokeColor=#A8201A;" parent="1" source="IGpdcPXpx3QODBAOmaDT-8" target="KA5vXZ2nPaFK-a-9JE_G-65" edge="1">
          <mxGeometry relative="1" as="geometry">
            <mxPoint x="1553" y="-409" as="sourcePoint" />
            <mxPoint x="1658" y="-405" as="targetPoint" />
          </mxGeometry>
        </mxCell>
        <mxCell id="KA5vXZ2nPaFK-a-9JE_G-165" style="edgeStyle=none;shape=connector;rounded=1;orthogonalLoop=1;jettySize=auto;html=1;labelBackgroundColor=none;fontFamily=Helvetica;fontSize=15;fontColor=default;endArrow=oval;endFill=0;entryX=0.021;entryY=0.538;entryDx=0;entryDy=0;entryPerimeter=0;strokeColor=#A8201A;exitX=1;exitY=0.75;exitDx=0;exitDy=0;exitPerimeter=0;" parent="1" source="IGpdcPXpx3QODBAOmaDT-8" target="KA5vXZ2nPaFK-a-9JE_G-67" edge="1">
          <mxGeometry relative="1" as="geometry">
            <mxPoint x="1534" y="-404" as="sourcePoint" />
            <mxPoint x="1599" y="-378" as="targetPoint" />
          </mxGeometry>
        </mxCell>
        <mxCell id="KA5vXZ2nPaFK-a-9JE_G-167" style="edgeStyle=none;rounded=1;orthogonalLoop=1;jettySize=auto;html=1;endArrow=oval;endFill=1;labelBackgroundColor=none;fontFamily=Helvetica;fontSize=15;fontColor=default;shape=connector;strokeColor=#A8201A;entryX=0.053;entryY=0.983;entryDx=0;entryDy=0;entryPerimeter=0;exitX=0.816;exitY=1.015;exitDx=0;exitDy=0;exitPerimeter=0;" parent="1" source="IGpdcPXpx3QODBAOmaDT-8" target="KA5vXZ2nPaFK-a-9JE_G-64" edge="1">
          <mxGeometry relative="1" as="geometry">
            <mxPoint x="1585.1599999999999" y="-335.44000000000005" as="targetPoint" />
            <mxPoint x="1527" y="-437" as="sourcePoint" />
          </mxGeometry>
        </mxCell>
        <mxCell id="KA5vXZ2nPaFK-a-9JE_G-168" style="edgeStyle=none;shape=connector;rounded=1;orthogonalLoop=1;jettySize=auto;html=1;labelBackgroundColor=none;fontFamily=Helvetica;fontSize=15;fontColor=default;endArrow=oval;endFill=0;strokeColor=#A8201A;entryX=0.199;entryY=0.958;entryDx=0;entryDy=0;entryPerimeter=0;" parent="1" target="KA5vXZ2nPaFK-a-9JE_G-169" edge="1">
          <mxGeometry relative="1" as="geometry">
            <mxPoint x="1534" y="-438" as="sourcePoint" />
            <mxPoint x="1596" y="-452" as="targetPoint" />
          </mxGeometry>
        </mxCell>
        <mxCell id="KA5vXZ2nPaFK-a-9JE_G-169" value="Provincia" style="text;html=1;align=center;verticalAlign=middle;resizable=0;points=[];autosize=1;strokeColor=none;fillColor=none;fontSize=15;fontFamily=Helvetica;labelBackgroundColor=none;rounded=1;fontColor=#143642;" parent="1" vertex="1">
          <mxGeometry x="1518" y="-488" width="80" height="30" as="geometry" />
        </mxCell>
        <mxCell id="KA5vXZ2nPaFK-a-9JE_G-172" style="edgeStyle=none;shape=connector;rounded=1;orthogonalLoop=1;jettySize=auto;html=1;exitX=0.554;exitY=-0.004;exitDx=0;exitDy=0;exitPerimeter=0;labelBackgroundColor=none;fontFamily=Helvetica;fontSize=15;fontColor=default;endArrow=oval;endFill=0;entryX=0.011;entryY=1.015;entryDx=0;entryDy=0;entryPerimeter=0;strokeColor=#A8201A;" parent="1" source="IGpdcPXpx3QODBAOmaDT-103" target="KA5vXZ2nPaFK-a-9JE_G-158" edge="1">
          <mxGeometry relative="1" as="geometry">
            <mxPoint x="1492" y="-663" as="sourcePoint" />
            <mxPoint x="1494" y="-727" as="targetPoint" />
          </mxGeometry>
        </mxCell>
        <mxCell id="KA5vXZ2nPaFK-a-9JE_G-173" style="edgeStyle=none;rounded=1;orthogonalLoop=1;jettySize=auto;html=1;endArrow=oval;endFill=1;labelBackgroundColor=none;fontFamily=Helvetica;fontSize=15;fontColor=default;shape=connector;strokeColor=#A8201A;" parent="1" edge="1">
          <mxGeometry relative="1" as="geometry">
            <mxPoint x="1544" y="-117" as="targetPoint" />
            <mxPoint x="1546" y="-379" as="sourcePoint" />
          </mxGeometry>
        </mxCell>
        <mxCell id="KA5vXZ2nPaFK-a-9JE_G-174" style="edgeStyle=none;shape=connector;rounded=1;orthogonalLoop=1;jettySize=auto;html=1;labelBackgroundColor=none;fontFamily=Helvetica;fontSize=15;fontColor=default;endArrow=oval;endFill=0;entryX=0.495;entryY=1.088;entryDx=0;entryDy=0;entryPerimeter=0;exitX=0.5;exitY=0;exitDx=0;exitDy=0;exitPerimeter=0;strokeColor=#A8201A;" parent="1" source="IGpdcPXpx3QODBAOmaDT-12" target="KA5vXZ2nPaFK-a-9JE_G-178" edge="1">
          <mxGeometry relative="1" as="geometry">
            <mxPoint x="825.5" y="-588" as="sourcePoint" />
            <mxPoint x="825.0799999999999" y="-572.03" as="targetPoint" />
          </mxGeometry>
        </mxCell>
        <mxCell id="KA5vXZ2nPaFK-a-9JE_G-175" style="edgeStyle=none;shape=connector;rounded=1;orthogonalLoop=1;jettySize=auto;html=1;exitX=0.95;exitY=0;exitDx=0;exitDy=0;exitPerimeter=0;labelBackgroundColor=none;fontFamily=Helvetica;fontSize=15;fontColor=default;endArrow=oval;endFill=0;strokeColor=#A8201A;" parent="1" source="IGpdcPXpx3QODBAOmaDT-12" target="KA5vXZ2nPaFK-a-9JE_G-179" edge="1">
          <mxGeometry relative="1" as="geometry">
            <mxPoint x="856.9000000000001" y="-587.8800000000001" as="sourcePoint" />
            <mxPoint x="857.7" y="-551.31" as="targetPoint" />
          </mxGeometry>
        </mxCell>
        <mxCell id="KA5vXZ2nPaFK-a-9JE_G-176" style="edgeStyle=none;shape=connector;rounded=1;orthogonalLoop=1;jettySize=auto;html=1;labelBackgroundColor=none;fontFamily=Helvetica;fontSize=15;fontColor=default;endArrow=oval;endFill=0;strokeColor=#A8201A;" parent="1" target="KA5vXZ2nPaFK-a-9JE_G-181" edge="1">
          <mxGeometry relative="1" as="geometry">
            <mxPoint x="755" y="-439" as="sourcePoint" />
          </mxGeometry>
        </mxCell>
        <mxCell id="KA5vXZ2nPaFK-a-9JE_G-178" value="Nome" style="text;html=1;align=center;verticalAlign=middle;resizable=0;points=[];autosize=1;strokeColor=none;fillColor=none;fontSize=15;fontFamily=Helvetica;labelBackgroundColor=none;rounded=1;fontColor=#143642;" parent="1" vertex="1">
          <mxGeometry x="751" y="-509" width="60" height="30" as="geometry" />
        </mxCell>
        <mxCell id="KA5vXZ2nPaFK-a-9JE_G-179" value="Cognome" style="text;html=1;align=center;verticalAlign=middle;resizable=0;points=[];autosize=1;strokeColor=none;fillColor=none;fontSize=15;fontFamily=Helvetica;labelBackgroundColor=none;rounded=1;fontColor=#143642;" parent="1" vertex="1">
          <mxGeometry x="852" y="-510" width="90" height="30" as="geometry" />
        </mxCell>
        <mxCell id="KA5vXZ2nPaFK-a-9JE_G-181" value="Telefono" style="text;html=1;align=center;verticalAlign=middle;resizable=0;points=[];autosize=1;strokeColor=none;fillColor=none;fontSize=15;fontFamily=Helvetica;labelBackgroundColor=none;rounded=1;fontColor=#143642;" parent="1" vertex="1">
          <mxGeometry x="654" y="-510" width="80" height="30" as="geometry" />
        </mxCell>
        <mxCell id="KA5vXZ2nPaFK-a-9JE_G-182" value="0,1" style="text;html=1;align=center;verticalAlign=middle;resizable=0;points=[];autosize=1;strokeColor=none;fillColor=none;fontSize=15;fontFamily=Helvetica;rounded=1;labelBackgroundColor=none;fontColor=#143642;" parent="1" vertex="1">
          <mxGeometry x="715" y="-488" width="40" height="30" as="geometry" />
        </mxCell>
        <mxCell id="KA5vXZ2nPaFK-a-9JE_G-186" value="Email" style="text;html=1;align=center;verticalAlign=middle;resizable=0;points=[];autosize=1;strokeColor=none;fillColor=none;fontSize=15;fontFamily=Helvetica;labelBackgroundColor=none;rounded=1;fontColor=#143642;" parent="1" vertex="1">
          <mxGeometry x="803.5" y="-510" width="56" height="30" as="geometry" />
        </mxCell>
        <mxCell id="KA5vXZ2nPaFK-a-9JE_G-187" style="edgeStyle=none;shape=connector;rounded=1;orthogonalLoop=1;jettySize=auto;html=1;labelBackgroundColor=none;fontFamily=Helvetica;fontSize=15;fontColor=default;endArrow=oval;endFill=1;strokeColor=#A8201A;entryX=0.368;entryY=1.01;entryDx=0;entryDy=0;entryPerimeter=0;" parent="1" target="KA5vXZ2nPaFK-a-9JE_G-186" edge="1">
          <mxGeometry relative="1" as="geometry">
            <mxPoint x="806" y="-437" as="sourcePoint" />
            <mxPoint x="1012" y="-620" as="targetPoint" />
          </mxGeometry>
        </mxCell>
        <mxCell id="KA5vXZ2nPaFK-a-9JE_G-188" value="0,1" style="text;html=1;align=center;verticalAlign=middle;resizable=0;points=[];autosize=1;strokeColor=none;fillColor=none;fontSize=15;fontFamily=Helvetica;rounded=1;labelBackgroundColor=none;fontColor=#143642;" parent="1" vertex="1">
          <mxGeometry x="1342.75" y="-350" width="40" height="30" as="geometry" />
        </mxCell>
        <mxCell id="KA5vXZ2nPaFK-a-9JE_G-194" value="NomeScuola" style="text;html=1;align=center;verticalAlign=middle;resizable=0;points=[];autosize=1;strokeColor=none;fillColor=none;fontSize=14;labelBackgroundColor=none;rounded=1;fontColor=#143642;" parent="1" vertex="1">
          <mxGeometry x="1244.75" y="-355" width="98" height="29" as="geometry" />
        </mxCell>
        <mxCell id="KA5vXZ2nPaFK-a-9JE_G-202" value="0,1" style="text;html=1;align=center;verticalAlign=middle;resizable=0;points=[];autosize=1;strokeColor=none;fillColor=none;fontSize=15;fontFamily=Helvetica;rounded=1;labelBackgroundColor=none;fontColor=#143642;" parent="1" vertex="1">
          <mxGeometry x="750" y="-398" width="40" height="30" as="geometry" />
        </mxCell>
        <mxCell id="KA5vXZ2nPaFK-a-9JE_G-204" value="0,N" style="text;html=1;align=center;verticalAlign=middle;resizable=0;points=[];autosize=1;strokeColor=none;fillColor=none;fontSize=15;fontFamily=Helvetica;rounded=1;labelBackgroundColor=none;fontColor=#143642;" parent="1" vertex="1">
          <mxGeometry x="683" y="-443" width="41" height="30" as="geometry" />
        </mxCell>
        <mxCell id="KA5vXZ2nPaFK-a-9JE_G-205" value="1,N" style="text;html=1;align=center;verticalAlign=middle;resizable=0;points=[];autosize=1;strokeColor=none;fillColor=none;fontSize=15;fontFamily=Helvetica;rounded=1;labelBackgroundColor=none;fontColor=#143642;" parent="1" vertex="1">
          <mxGeometry x="1316.5" y="-444" width="41" height="30" as="geometry" />
        </mxCell>
        <mxCell id="KA5vXZ2nPaFK-a-9JE_G-206" value="1,N" style="text;html=1;align=center;verticalAlign=middle;resizable=0;points=[];autosize=1;strokeColor=none;fillColor=none;fontSize=15;fontFamily=Helvetica;rounded=1;labelBackgroundColor=none;fontColor=#143642;" parent="1" vertex="1">
          <mxGeometry x="1365" y="-398" width="41" height="30" as="geometry" />
        </mxCell>
        <mxCell id="KA5vXZ2nPaFK-a-9JE_G-207" value="1,N" style="text;html=1;align=center;verticalAlign=middle;resizable=0;points=[];autosize=1;strokeColor=none;fillColor=none;fontSize=15;fontFamily=Helvetica;rounded=1;labelBackgroundColor=none;fontColor=#143642;" parent="1" vertex="1">
          <mxGeometry x="1371" y="-476" width="41" height="30" as="geometry" />
        </mxCell>
        <mxCell id="KA5vXZ2nPaFK-a-9JE_G-208" value="1,N" style="text;html=1;align=center;verticalAlign=middle;resizable=0;points=[];autosize=1;strokeColor=none;fillColor=none;fontSize=15;fontFamily=Helvetica;rounded=1;labelBackgroundColor=none;fontColor=#143642;" parent="1" vertex="1">
          <mxGeometry x="1465.5" y="-476" width="41" height="30" as="geometry" />
        </mxCell>
        <mxCell id="KA5vXZ2nPaFK-a-9JE_G-209" value="1,N" style="text;html=1;align=center;verticalAlign=middle;resizable=0;points=[];autosize=1;strokeColor=none;fillColor=none;fontSize=15;fontFamily=Helvetica;rounded=1;labelBackgroundColor=none;fontColor=#143642;" parent="1" vertex="1">
          <mxGeometry x="1436.75" y="-403" width="41" height="30" as="geometry" />
        </mxCell>
        <mxCell id="KA5vXZ2nPaFK-a-9JE_G-210" value="0,N" style="text;html=1;align=center;verticalAlign=middle;resizable=0;points=[];autosize=1;strokeColor=none;fillColor=none;fontSize=15;fontFamily=Helvetica;rounded=1;labelBackgroundColor=none;fontColor=#143642;" parent="1" vertex="1">
          <mxGeometry x="1371" y="-631" width="41" height="30" as="geometry" />
        </mxCell>
        <mxCell id="KA5vXZ2nPaFK-a-9JE_G-211" value="1,1" style="text;html=1;align=center;verticalAlign=middle;resizable=0;points=[];autosize=1;strokeColor=none;fillColor=none;fontSize=15;fontFamily=Helvetica;rounded=1;labelBackgroundColor=none;fontColor=#143642;" parent="1" vertex="1">
          <mxGeometry x="1464.13" y="-627" width="39" height="30" as="geometry" />
        </mxCell>
        <mxCell id="KA5vXZ2nPaFK-a-9JE_G-212" value="1,3" style="text;html=1;align=center;verticalAlign=middle;resizable=0;points=[];autosize=1;strokeColor=none;fillColor=none;fontSize=15;fontFamily=Helvetica;rounded=1;labelBackgroundColor=none;fontColor=#143642;" parent="1" vertex="1">
          <mxGeometry x="1326" y="-677" width="39" height="30" as="geometry" />
        </mxCell>
        <mxCell id="KA5vXZ2nPaFK-a-9JE_G-213" value="1,N" style="text;html=1;align=center;verticalAlign=middle;resizable=0;points=[];autosize=1;strokeColor=none;fillColor=none;fontSize=15;fontFamily=Helvetica;rounded=1;labelBackgroundColor=none;fontColor=#143642;" parent="1" vertex="1">
          <mxGeometry x="1156" y="-685" width="41" height="30" as="geometry" />
        </mxCell>
        <mxCell id="KA5vXZ2nPaFK-a-9JE_G-214" value="1,N" style="text;html=1;align=center;verticalAlign=middle;resizable=0;points=[];autosize=1;strokeColor=none;fillColor=none;fontSize=15;fontFamily=Helvetica;rounded=1;labelBackgroundColor=none;fontColor=#143642;" parent="1" vertex="1">
          <mxGeometry x="958.5" y="-654" width="41" height="30" as="geometry" />
        </mxCell>
        <mxCell id="KA5vXZ2nPaFK-a-9JE_G-215" value="1,1" style="text;html=1;align=center;verticalAlign=middle;resizable=0;points=[];autosize=1;strokeColor=none;fillColor=none;fontSize=15;fontFamily=Helvetica;rounded=1;labelBackgroundColor=none;fontColor=#143642;" parent="1" vertex="1">
          <mxGeometry x="1474" y="-154" width="39" height="30" as="geometry" />
        </mxCell>
        <mxCell id="KA5vXZ2nPaFK-a-9JE_G-216" value="1,1" style="text;html=1;align=center;verticalAlign=middle;resizable=0;points=[];autosize=1;strokeColor=none;fillColor=none;fontSize=15;fontFamily=Helvetica;rounded=1;labelBackgroundColor=none;fontColor=#143642;" parent="1" vertex="1">
          <mxGeometry x="1382.75" y="-101" width="39" height="30" as="geometry" />
        </mxCell>
        <mxCell id="KA5vXZ2nPaFK-a-9JE_G-217" value="1,N" style="text;html=1;align=center;verticalAlign=middle;resizable=0;points=[];autosize=1;strokeColor=none;fillColor=none;fontSize=15;fontFamily=Helvetica;rounded=1;labelBackgroundColor=none;fontColor=#143642;" parent="1" vertex="1">
          <mxGeometry x="1521.5" y="-101" width="41" height="30" as="geometry" />
        </mxCell>
        <mxCell id="KA5vXZ2nPaFK-a-9JE_G-218" value="1,1" style="text;html=1;align=center;verticalAlign=middle;resizable=0;points=[];autosize=1;strokeColor=none;fillColor=none;fontSize=15;fontFamily=Helvetica;rounded=1;labelBackgroundColor=none;fontColor=#143642;" parent="1" vertex="1">
          <mxGeometry x="896" y="-792" width="39" height="30" as="geometry" />
        </mxCell>
        <mxCell id="KA5vXZ2nPaFK-a-9JE_G-221" value="1,20" style="text;html=1;align=center;verticalAlign=middle;resizable=0;points=[];autosize=1;strokeColor=none;fillColor=none;fontSize=15;fontFamily=Helvetica;rounded=1;labelBackgroundColor=none;fontColor=#143642;" parent="1" vertex="1">
          <mxGeometry x="888" y="-998" width="47" height="30" as="geometry" />
        </mxCell>
        <mxCell id="KA5vXZ2nPaFK-a-9JE_G-222" value="1,1" style="text;html=1;align=center;verticalAlign=middle;resizable=0;points=[];autosize=1;strokeColor=none;fillColor=none;fontSize=15;fontFamily=Helvetica;rounded=1;labelBackgroundColor=none;fontColor=#143642;" parent="1" vertex="1">
          <mxGeometry x="923.25" y="-856" width="39" height="30" as="geometry" />
        </mxCell>
        <mxCell id="KA5vXZ2nPaFK-a-9JE_G-223" value="1,1" style="text;html=1;align=center;verticalAlign=middle;resizable=0;points=[];autosize=1;strokeColor=none;fillColor=none;fontSize=15;fontFamily=Helvetica;rounded=1;labelBackgroundColor=none;fontColor=#143642;" parent="1" vertex="1">
          <mxGeometry x="1007" y="-834" width="39" height="30" as="geometry" />
        </mxCell>
        <mxCell id="KA5vXZ2nPaFK-a-9JE_G-224" value="1,N" style="text;html=1;align=center;verticalAlign=middle;resizable=0;points=[];autosize=1;strokeColor=none;fillColor=none;fontSize=15;fontFamily=Helvetica;rounded=1;labelBackgroundColor=none;fontColor=#143642;" parent="1" vertex="1">
          <mxGeometry x="1404" y="-696" width="41" height="30" as="geometry" />
        </mxCell>
        <mxCell id="KA5vXZ2nPaFK-a-9JE_G-225" value="1,N" style="text;html=1;align=center;verticalAlign=middle;resizable=0;points=[];autosize=1;strokeColor=none;fillColor=none;fontSize=15;fontFamily=Helvetica;rounded=1;labelBackgroundColor=none;fontColor=#143642;" parent="1" vertex="1">
          <mxGeometry x="850" y="-792" width="41" height="30" as="geometry" />
        </mxCell>
        <mxCell id="KA5vXZ2nPaFK-a-9JE_G-226" value="1,N" style="text;html=1;align=center;verticalAlign=middle;resizable=0;points=[];autosize=1;strokeColor=none;fillColor=none;fontSize=15;fontFamily=Helvetica;rounded=1;labelBackgroundColor=none;fontColor=#143642;" parent="1" vertex="1">
          <mxGeometry x="570" y="-812" width="41" height="30" as="geometry" />
        </mxCell>
        <mxCell id="KA5vXZ2nPaFK-a-9JE_G-229" value="1,N" style="text;html=1;align=center;verticalAlign=middle;resizable=0;points=[];autosize=1;strokeColor=none;fillColor=none;fontSize=15;fontFamily=Helvetica;rounded=1;labelBackgroundColor=none;fontColor=#143642;" parent="1" vertex="1">
          <mxGeometry x="572" y="-679" width="41" height="30" as="geometry" />
        </mxCell>
        <mxCell id="KA5vXZ2nPaFK-a-9JE_G-230" value="1,N" style="text;html=1;align=center;verticalAlign=middle;resizable=0;points=[];autosize=1;strokeColor=none;fillColor=none;fontSize=15;fontFamily=Helvetica;rounded=1;labelBackgroundColor=none;fontColor=#143642;" parent="1" vertex="1">
          <mxGeometry x="631" y="-657" width="41" height="30" as="geometry" />
        </mxCell>
        <mxCell id="KA5vXZ2nPaFK-a-9JE_G-232" value="0,1" style="text;html=1;align=center;verticalAlign=middle;resizable=0;points=[];autosize=1;strokeColor=none;fillColor=none;fontSize=15;fontFamily=Helvetica;rounded=1;labelBackgroundColor=none;fontColor=#143642;" parent="1" vertex="1">
          <mxGeometry x="807" y="-398" width="39" height="30" as="geometry" />
        </mxCell>
        <mxCell id="KA5vXZ2nPaFK-a-9JE_G-234" value="0,1" style="text;html=1;align=center;verticalAlign=middle;resizable=0;points=[];autosize=1;strokeColor=none;fillColor=none;fontSize=15;fontFamily=Helvetica;rounded=1;labelBackgroundColor=none;fontColor=#143642;" parent="1" vertex="1">
          <mxGeometry x="833" y="-445" width="39" height="30" as="geometry" />
        </mxCell>
        <mxCell id="nj4AOBOk8mtP1z4zq-uT-2" style="edgeStyle=orthogonalEdgeStyle;rounded=0;orthogonalLoop=1;jettySize=auto;html=1;exitX=0.152;exitY=-0.025;exitDx=0;exitDy=0;exitPerimeter=0;strokeColor=#A8201A;fontColor=default;fillColor=#FAE5C7;endArrow=oval;endFill=1;labelBackgroundColor=none;" parent="1" source="9Mot5vRxFBjQDdBxqjVs-58" target="KA5vXZ2nPaFK-a-9JE_G-89" edge="1">
          <mxGeometry relative="1" as="geometry">
            <mxPoint x="535" y="-820" as="sourcePoint" />
            <mxPoint x="497" y="-766" as="targetPoint" />
            <Array as="points">
              <mxPoint x="532" y="-670" />
            </Array>
          </mxGeometry>
        </mxCell>
        <mxCell id="nj4AOBOk8mtP1z4zq-uT-6" value="Possiede" style="rhombus;whiteSpace=wrap;html=1;fontFamily=Helvetica;fontSize=15;align=center;verticalAlign=middle;labelBackgroundColor=none;rounded=1;fillColor=#FAE5C7;strokeColor=#0F8B8D;fontColor=#143642;" parent="1" vertex="1">
          <mxGeometry x="604" y="-244" width="103" height="71" as="geometry" />
        </mxCell>
        <mxCell id="nj4AOBOk8mtP1z4zq-uT-7" value="Ruolo" style="whiteSpace=wrap;html=1;rounded=1;shadow=0;glass=0;fontSize=15;points=[[0,0,0,0,0],[0,0.25,0,0,0],[0,0.5,0,0,0],[0,0.75,0,0,0],[0,1,0,0,0],[0.25,0,0,0,0],[0.25,1,0,0,0],[0.5,0,0,0,0],[0.5,1,0,0,0],[0.75,0,0,0,0],[0.75,1,0,0,0],[1,0,0,0,0],[1,0.25,0,0,0],[1,0.5,0,0,0],[1,0.75,0,0,0],[1,1,0,0,0]];labelBackgroundColor=none;fillColor=#FAE5C7;strokeColor=#0F8B8D;fontColor=#143642;" parent="1" vertex="1">
          <mxGeometry x="451.0000000000002" y="-228.5" width="100" height="40" as="geometry" />
        </mxCell>
        <mxCell id="nj4AOBOk8mtP1z4zq-uT-8" value="" style="endArrow=none;html=1;rounded=0;exitX=1;exitY=0.5;exitDx=0;exitDy=0;exitPerimeter=0;entryX=0.031;entryY=0.507;entryDx=0;entryDy=0;entryPerimeter=0;strokeColor=#A8201A;labelBackgroundColor=none;fontColor=default;" parent="1" source="nj4AOBOk8mtP1z4zq-uT-7" target="nj4AOBOk8mtP1z4zq-uT-6" edge="1">
          <mxGeometry width="50" height="50" relative="1" as="geometry">
            <mxPoint x="408" y="-75" as="sourcePoint" />
            <mxPoint x="569" y="-208" as="targetPoint" />
          </mxGeometry>
        </mxCell>
        <mxCell id="nj4AOBOk8mtP1z4zq-uT-9" value="1,N" style="text;html=1;align=center;verticalAlign=middle;resizable=0;points=[];autosize=1;strokeColor=none;fillColor=none;fontSize=15;fontFamily=Helvetica;rounded=1;labelBackgroundColor=none;fontColor=#143642;" parent="1" vertex="1">
          <mxGeometry x="711" y="-396" width="41" height="30" as="geometry" />
        </mxCell>
        <mxCell id="nj4AOBOk8mtP1z4zq-uT-10" value="1,1" style="text;html=1;align=center;verticalAlign=middle;resizable=0;points=[];autosize=1;strokeColor=none;fillColor=none;fontSize=15;fontFamily=Helvetica;rounded=1;labelBackgroundColor=none;fontColor=#143642;" parent="1" vertex="1">
          <mxGeometry x="544" y="-235" width="39" height="30" as="geometry" />
        </mxCell>
        <mxCell id="nj4AOBOk8mtP1z4zq-uT-12" style="edgeStyle=none;shape=connector;rounded=1;orthogonalLoop=1;jettySize=auto;html=1;labelBackgroundColor=none;fontFamily=Helvetica;fontSize=15;fontColor=default;endArrow=oval;endFill=0;strokeColor=#A8201A;exitX=0.385;exitY=0.962;exitDx=0;exitDy=0;exitPerimeter=0;entryX=0.492;entryY=0.024;entryDx=0;entryDy=0;entryPerimeter=0;" parent="1" source="nj4AOBOk8mtP1z4zq-uT-7" target="nj4AOBOk8mtP1z4zq-uT-14" edge="1">
          <mxGeometry relative="1" as="geometry">
            <mxPoint x="467.5595000000003" y="-178.00000000000023" as="sourcePoint" />
            <mxPoint x="468" y="-154" as="targetPoint" />
          </mxGeometry>
        </mxCell>
        <mxCell id="nj4AOBOk8mtP1z4zq-uT-14" value="Tipo" style="text;html=1;align=center;verticalAlign=middle;resizable=0;points=[];autosize=1;strokeColor=none;fillColor=none;fontSize=14;labelBackgroundColor=none;rounded=1;fontColor=#143642;" parent="1" vertex="1">
          <mxGeometry x="467" y="-178" width="45" height="29" as="geometry" />
        </mxCell>
        <mxCell id="nj4AOBOk8mtP1z4zq-uT-22" value="1,2" style="text;html=1;align=center;verticalAlign=middle;resizable=0;points=[];autosize=1;strokeColor=none;fillColor=none;fontSize=15;fontFamily=Helvetica;rounded=1;labelBackgroundColor=none;fontColor=#143642;" parent="1" vertex="1">
          <mxGeometry x="813" y="-815" width="39" height="30" as="geometry" />
        </mxCell>
        <mxCell id="wqyqU9CHVsbRBw_Xh5V7-2" style="edgeStyle=orthogonalEdgeStyle;rounded=0;orthogonalLoop=1;jettySize=auto;html=1;strokeColor=#A8201A;fontColor=default;fillColor=#FAE5C7;endArrow=oval;endFill=1;labelBackgroundColor=none;" parent="1" edge="1">
          <mxGeometry relative="1" as="geometry">
            <mxPoint x="462" y="-539" as="sourcePoint" />
            <mxPoint x="330" y="-553" as="targetPoint" />
            <Array as="points">
              <mxPoint x="462" y="-452" />
              <mxPoint x="330" y="-452" />
              <mxPoint x="330" y="-542" />
            </Array>
          </mxGeometry>
        </mxCell>
        <mxCell id="wqyqU9CHVsbRBw_Xh5V7-3" style="edgeStyle=orthogonalEdgeStyle;rounded=0;orthogonalLoop=1;jettySize=auto;html=1;exitX=1;exitY=1;exitDx=0;exitDy=0;exitPerimeter=0;entryX=0.258;entryY=0.02;entryDx=0;entryDy=0;entryPerimeter=0;strokeColor=#A8201A;fontColor=default;fillColor=#FAE5C7;endArrow=oval;endFill=0;labelBackgroundColor=none;" parent="1" source="TdYUr1XkgakKkLenXr9e-2" target="TdYUr1XkgakKkLenXr9e-45" edge="1">
          <mxGeometry relative="1" as="geometry">
            <Array as="points" />
          </mxGeometry>
        </mxCell>
        <mxCell id="wqyqU9CHVsbRBw_Xh5V7-4" style="edgeStyle=orthogonalEdgeStyle;rounded=0;orthogonalLoop=1;jettySize=auto;html=1;exitX=0.5;exitY=1;exitDx=0;exitDy=0;exitPerimeter=0;entryX=0.229;entryY=-0.033;entryDx=0;entryDy=0;entryPerimeter=0;strokeColor=#A8201A;fontColor=default;fillColor=#FAE5C7;endArrow=oval;endFill=0;labelBackgroundColor=none;" parent="1" source="TdYUr1XkgakKkLenXr9e-2" target="TdYUr1XkgakKkLenXr9e-46" edge="1">
          <mxGeometry relative="1" as="geometry">
            <Array as="points">
              <mxPoint x="190" y="-479" />
            </Array>
          </mxGeometry>
        </mxCell>
        <mxCell id="wqyqU9CHVsbRBw_Xh5V7-5" style="edgeStyle=orthogonalEdgeStyle;rounded=0;orthogonalLoop=1;jettySize=auto;html=1;exitX=0.25;exitY=1;exitDx=0;exitDy=0;exitPerimeter=0;strokeColor=#A8201A;fontColor=default;fillColor=#FAE5C7;endArrow=oval;endFill=0;labelBackgroundColor=none;" parent="1" source="TdYUr1XkgakKkLenXr9e-2" target="TdYUr1XkgakKkLenXr9e-35" edge="1">
          <mxGeometry relative="1" as="geometry" />
        </mxCell>
        <mxCell id="wqyqU9CHVsbRBw_Xh5V7-6" style="edgeStyle=orthogonalEdgeStyle;rounded=0;orthogonalLoop=1;jettySize=auto;html=1;exitX=0;exitY=1;exitDx=0;exitDy=0;exitPerimeter=0;strokeColor=#A8201A;fontColor=default;fillColor=#FAE5C7;endArrow=oval;endFill=0;labelBackgroundColor=none;" parent="1" source="TdYUr1XkgakKkLenXr9e-2" target="TdYUr1XkgakKkLenXr9e-34" edge="1">
          <mxGeometry relative="1" as="geometry" />
        </mxCell>
        <mxCell id="TdYUr1XkgakKkLenXr9e-2" value="DATI" style="whiteSpace=wrap;html=1;rounded=1;shadow=0;glass=0;fontSize=15;points=[[0,0,0,0,0],[0,0.25,0,0,0],[0,0.5,0,0,0],[0,0.75,0,0,0],[0,1,0,0,0],[0.25,0,0,0,0],[0.25,1,0,0,0],[0.5,0,0,0,0],[0.5,1,0,0,0],[0.75,0,0,0,0],[0.75,1,0,0,0],[1,0,0,0,0],[1,0.25,0,0,0],[1,0.5,0,0,0],[1,0.75,0,0,0],[1,1,0,0,0]];movable=1;resizable=1;rotatable=1;deletable=1;editable=1;locked=0;connectable=1;labelBackgroundColor=none;fillColor=#FAE5C7;strokeColor=#0F8B8D;fontColor=#143642;" parent="1" vertex="1">
          <mxGeometry x="107" y="-519" width="146" height="40" as="geometry" />
        </mxCell>
        <mxCell id="TdYUr1XkgakKkLenXr9e-28" style="edgeStyle=orthogonalEdgeStyle;rounded=0;orthogonalLoop=1;jettySize=auto;html=1;strokeColor=#A8201A;fontColor=default;fillColor=#FAE5C7;endArrow=oval;endFill=0;exitX=0.25;exitY=0;exitDx=0;exitDy=0;exitPerimeter=0;entryX=1.017;entryY=0.533;entryDx=0;entryDy=0;entryPerimeter=0;labelBackgroundColor=none;" parent="1" source="TdYUr1XkgakKkLenXr9e-2" target="9Mot5vRxFBjQDdBxqjVs-67" edge="1">
          <mxGeometry relative="1" as="geometry">
            <mxPoint x="147" y="-520" as="sourcePoint" />
            <mxPoint x="57" y="-554" as="targetPoint" />
            <Array as="points">
              <mxPoint x="144" y="-587" />
            </Array>
          </mxGeometry>
        </mxCell>
        <mxCell id="TdYUr1XkgakKkLenXr9e-29" style="edgeStyle=orthogonalEdgeStyle;rounded=0;orthogonalLoop=1;jettySize=auto;html=1;exitX=0;exitY=0;exitDx=0;exitDy=0;exitPerimeter=0;strokeColor=#A8201A;fontColor=default;fillColor=#FAE5C7;endArrow=oval;endFill=0;labelBackgroundColor=none;" parent="1" source="TdYUr1XkgakKkLenXr9e-2" target="9Mot5vRxFBjQDdBxqjVs-66" edge="1">
          <mxGeometry relative="1" as="geometry">
            <mxPoint x="150" y="-438" as="sourcePoint" />
            <Array as="points">
              <mxPoint x="107" y="-553" />
            </Array>
          </mxGeometry>
        </mxCell>
        <mxCell id="TdYUr1XkgakKkLenXr9e-10" value="Altezza_Pianta" style="text;html=1;align=center;verticalAlign=middle;resizable=0;points=[];autosize=1;strokeColor=none;fillColor=none;fontSize=15;fontFamily=Helvetica;labelBackgroundColor=none;rounded=1;fontColor=#143642;" parent="1" vertex="1">
          <mxGeometry x="32" y="-633" width="118" height="30" as="geometry" />
        </mxCell>
        <mxCell id="TdYUr1XkgakKkLenXr9e-11" value="Lunghezza_Radice" style="text;html=1;align=center;verticalAlign=middle;resizable=0;points=[];autosize=1;strokeColor=none;fillColor=none;fontSize=15;fontFamily=Helvetica;labelBackgroundColor=none;rounded=1;fontColor=#143642;" parent="1" vertex="1">
          <mxGeometry x="143" y="-649" width="146" height="30" as="geometry" />
        </mxCell>
        <mxCell id="wqyqU9CHVsbRBw_Xh5V7-1" style="edgeStyle=orthogonalEdgeStyle;rounded=0;orthogonalLoop=1;jettySize=auto;html=1;exitX=0;exitY=0.5;exitDx=0;exitDy=0;entryX=1;entryY=0.5;entryDx=0;entryDy=0;entryPerimeter=0;strokeColor=#A8201A;fontColor=default;fillColor=#FAE5C7;endArrow=none;endFill=0;labelBackgroundColor=none;" parent="1" source="TdYUr1XkgakKkLenXr9e-12" target="TdYUr1XkgakKkLenXr9e-2" edge="1">
          <mxGeometry relative="1" as="geometry" />
        </mxCell>
        <mxCell id="TdYUr1XkgakKkLenXr9e-12" value="Dati" style="rhombus;whiteSpace=wrap;html=1;rounded=1;shadow=0;glass=0;fontSize=15;align=center;labelBackgroundColor=none;fillColor=#FAE5C7;strokeColor=#0F8B8D;fontColor=#143642;" parent="1" vertex="1">
          <mxGeometry x="336" y="-540" width="100" height="82" as="geometry" />
        </mxCell>
        <mxCell id="TdYUr1XkgakKkLenXr9e-19" style="edgeStyle=orthogonalEdgeStyle;rounded=0;orthogonalLoop=1;jettySize=auto;html=1;entryX=1.004;entryY=0.517;entryDx=0;entryDy=0;entryPerimeter=0;strokeColor=#A8201A;fontColor=default;fillColor=#FAE5C7;endArrow=oval;endFill=0;labelBackgroundColor=none;" parent="1" source="TdYUr1XkgakKkLenXr9e-2" target="TdYUr1XkgakKkLenXr9e-10" edge="1">
          <mxGeometry relative="1" as="geometry">
            <mxPoint x="200" y="-594" as="sourcePoint" />
            <mxPoint x="300" y="-609" as="targetPoint" />
          </mxGeometry>
        </mxCell>
        <mxCell id="TdYUr1XkgakKkLenXr9e-20" style="edgeStyle=orthogonalEdgeStyle;rounded=0;orthogonalLoop=1;jettySize=auto;html=1;exitX=0.75;exitY=0;exitDx=0;exitDy=0;exitPerimeter=0;strokeColor=#A8201A;fontColor=default;fillColor=#FAE5C7;endArrow=oval;endFill=0;labelBackgroundColor=none;" parent="1" source="TdYUr1XkgakKkLenXr9e-2" target="TdYUr1XkgakKkLenXr9e-11" edge="1">
          <mxGeometry relative="1" as="geometry">
            <mxPoint x="200" y="-574" as="sourcePoint" />
            <mxPoint x="310" y="-599" as="targetPoint" />
          </mxGeometry>
        </mxCell>
        <mxCell id="TdYUr1XkgakKkLenXr9e-26" style="edgeStyle=orthogonalEdgeStyle;rounded=0;orthogonalLoop=1;jettySize=auto;html=1;strokeColor=#A8201A;fontColor=default;fillColor=#FAE5C7;endArrow=oval;endFill=0;exitX=1;exitY=1;exitDx=0;exitDy=0;exitPerimeter=0;entryX=0.48;entryY=-0.067;entryDx=0;entryDy=0;entryPerimeter=0;labelBackgroundColor=none;" parent="1" source="TdYUr1XkgakKkLenXr9e-2" target="KA5vXZ2nPaFK-a-9JE_G-69" edge="1">
          <mxGeometry relative="1" as="geometry">
            <mxPoint x="187" y="-468" as="sourcePoint" />
            <mxPoint x="110" y="-476" as="targetPoint" />
            <Array as="points">
              <mxPoint x="313" y="-479" />
              <mxPoint x="313" y="-447" />
            </Array>
          </mxGeometry>
        </mxCell>
        <mxCell id="TdYUr1XkgakKkLenXr9e-34" value="Frutti" style="text;html=1;align=center;verticalAlign=middle;resizable=0;points=[];autosize=1;strokeColor=none;fillColor=none;fontSize=15;fontFamily=Helvetica;labelBackgroundColor=none;rounded=1;fontColor=#143642;" parent="1" vertex="1">
          <mxGeometry x="46" y="-439" width="52" height="30" as="geometry" />
        </mxCell>
        <mxCell id="TdYUr1XkgakKkLenXr9e-35" value="Fiori" style="text;html=1;align=center;verticalAlign=middle;resizable=0;points=[];autosize=1;strokeColor=none;fillColor=none;fontSize=15;fontFamily=Helvetica;labelBackgroundColor=none;rounded=1;fontColor=#143642;" parent="1" vertex="1">
          <mxGeometry x="120" y="-407" width="47" height="30" as="geometry" />
        </mxCell>
        <mxCell id="TdYUr1XkgakKkLenXr9e-45" value="FoglieDanneggiate" style="text;html=1;align=center;verticalAlign=middle;resizable=0;points=[];autosize=1;strokeColor=none;fillColor=none;fontSize=15;fontFamily=Helvetica;labelBackgroundColor=none;rounded=1;fontColor=#143642;" parent="1" vertex="1">
          <mxGeometry x="216" y="-403" width="144" height="30" as="geometry" />
        </mxCell>
        <mxCell id="TdYUr1XkgakKkLenXr9e-46" value="SuperficieFoglieDanneggiate" style="text;html=1;align=center;verticalAlign=middle;resizable=0;points=[];autosize=1;strokeColor=none;fillColor=none;fontSize=15;fontFamily=Helvetica;labelBackgroundColor=none;rounded=1;fontColor=#143642;" parent="1" vertex="1">
          <mxGeometry x="142" y="-373" width="211" height="30" as="geometry" />
        </mxCell>
        <mxCell id="TdYUr1XkgakKkLenXr9e-55" value="" style="edgeStyle=none;shape=connector;rounded=1;orthogonalLoop=1;jettySize=auto;html=1;labelBackgroundColor=none;fontFamily=Helvetica;fontSize=15;fontColor=default;endArrow=oval;endFill=0;entryX=0.532;entryY=-0.107;entryDx=0;entryDy=0;entryPerimeter=0;strokeColor=#A8201A;exitX=0.058;exitY=0.97;exitDx=0;exitDy=0;exitPerimeter=0;" parent="1" target="KA5vXZ2nPaFK-a-9JE_G-193" edge="1" source="IGpdcPXpx3QODBAOmaDT-8">
          <mxGeometry relative="1" as="geometry">
            <mxPoint x="1354" y="-395" as="sourcePoint" />
            <mxPoint x="1130.52" y="-331.10299999999984" as="targetPoint" />
          </mxGeometry>
        </mxCell>
        <mxCell id="KA5vXZ2nPaFK-a-9JE_G-193" value="Finanziamento" style="text;html=1;align=center;verticalAlign=middle;resizable=0;points=[];autosize=1;strokeColor=none;fillColor=none;fontSize=14;labelBackgroundColor=none;rounded=1;fontColor=#143642;" parent="1" vertex="1">
          <mxGeometry x="1272.75" y="-303" width="110" height="29" as="geometry" />
        </mxCell>
        <mxCell id="EM07TJdLQ4tKNasi6T0R-10" style="edgeStyle=none;shape=connector;rounded=1;orthogonalLoop=1;jettySize=auto;html=1;labelBackgroundColor=none;fontFamily=Helvetica;fontSize=15;fontColor=default;endArrow=oval;endFill=1;strokeColor=#A8201A;" parent="1" edge="1">
          <mxGeometry relative="1" as="geometry">
            <mxPoint x="730" y="-232" as="sourcePoint" />
            <mxPoint x="588" y="-224" as="targetPoint" />
            <Array as="points">
              <mxPoint x="729" y="-168" />
              <mxPoint x="588" y="-169" />
            </Array>
          </mxGeometry>
        </mxCell>
        <mxCell id="UmOq5KjMr4q_eLapb8iz-4" value="1,2" style="text;html=1;align=center;verticalAlign=middle;resizable=0;points=[];autosize=1;strokeColor=none;fillColor=none;fontSize=15;fontFamily=Helvetica;rounded=1;labelBackgroundColor=none;fontColor=#143642;" parent="1" vertex="1">
          <mxGeometry x="572" y="-608" width="39" height="30" as="geometry" />
        </mxCell>
        <mxCell id="UmOq5KjMr4q_eLapb8iz-7" value="1,1" style="text;html=1;align=center;verticalAlign=middle;resizable=0;points=[];autosize=1;strokeColor=none;fillColor=none;fontSize=15;fontFamily=Helvetica;rounded=1;labelBackgroundColor=none;fontColor=#143642;" parent="1" vertex="1">
          <mxGeometry x="255" y="-528" width="39" height="30" as="geometry" />
        </mxCell>
        <mxCell id="UmOq5KjMr4q_eLapb8iz-8" value="1,1" style="text;html=1;align=center;verticalAlign=middle;resizable=0;points=[];autosize=1;strokeColor=none;fillColor=none;fontSize=15;fontFamily=Helvetica;rounded=1;labelBackgroundColor=none;fontColor=#143642;" parent="1" vertex="1">
          <mxGeometry x="508" y="-608" width="39" height="30" as="geometry" />
        </mxCell>
        <mxCell id="DWErfUBjFAyUowsWWpwN-14" style="edgeStyle=orthogonalEdgeStyle;rounded=0;orthogonalLoop=1;jettySize=auto;html=1;exitX=0;exitY=0.75;exitDx=0;exitDy=0;exitPerimeter=0;fillColor=#FAE5C7;strokeColor=#A8201A;endArrow=oval;endFill=0;labelBackgroundColor=none;fontColor=default;" parent="1" source="DWErfUBjFAyUowsWWpwN-1" target="DWErfUBjFAyUowsWWpwN-13" edge="1">
          <mxGeometry relative="1" as="geometry" />
        </mxCell>
        <mxCell id="DWErfUBjFAyUowsWWpwN-15" style="edgeStyle=orthogonalEdgeStyle;rounded=0;orthogonalLoop=1;jettySize=auto;html=1;exitX=0;exitY=0.25;exitDx=0;exitDy=0;exitPerimeter=0;endArrow=oval;endFill=0;fillColor=#FAE5C7;strokeColor=#A8201A;labelBackgroundColor=none;fontColor=default;" parent="1" source="DWErfUBjFAyUowsWWpwN-1" target="DWErfUBjFAyUowsWWpwN-12" edge="1">
          <mxGeometry relative="1" as="geometry" />
        </mxCell>
        <mxCell id="DWErfUBjFAyUowsWWpwN-1" value="RESPONSABILE" style="whiteSpace=wrap;html=1;rounded=1;shadow=0;glass=0;fontSize=15;points=[[0,0,0,0,0],[0,0.25,0,0,0],[0,0.5,0,0,0],[0,0.75,0,0,0],[0,1,0,0,0],[0.25,0,0,0,0],[0.25,1,0,0,0],[0.5,0,0,0,0],[0.5,1,0,0,0],[0.75,0,0,0,0],[0.75,1,0,0,0],[1,0,0,0,0],[1,0.25,0,0,0],[1,0.5,0,0,0],[1,0.75,0,0,0],[1,1,0,0,0]];movable=1;resizable=1;rotatable=1;deletable=1;editable=1;locked=0;connectable=1;labelBackgroundColor=none;fillColor=#FAE5C7;strokeColor=#0F8B8D;fontColor=#143642;" parent="1" vertex="1">
          <mxGeometry x="255" y="-230" width="121" height="40" as="geometry" />
        </mxCell>
        <mxCell id="DWErfUBjFAyUowsWWpwN-5" value="1,1" style="text;html=1;align=center;verticalAlign=middle;resizable=0;points=[];autosize=1;strokeColor=none;fillColor=none;fontSize=15;fontFamily=Helvetica;rounded=1;labelBackgroundColor=none;fontColor=#143642;" parent="1" vertex="1">
          <mxGeometry x="276" y="-260" width="39" height="30" as="geometry" />
        </mxCell>
        <mxCell id="DWErfUBjFAyUowsWWpwN-6" value="0,2" style="text;html=1;align=center;verticalAlign=middle;resizable=0;points=[];autosize=1;strokeColor=none;fillColor=none;fontSize=15;fontFamily=Helvetica;rounded=1;labelBackgroundColor=none;fontColor=#143642;" parent="1" vertex="1">
          <mxGeometry x="346" y="-260" width="39" height="30" as="geometry" />
        </mxCell>
        <mxCell id="DWErfUBjFAyUowsWWpwN-10" style="edgeStyle=orthogonalEdgeStyle;rounded=0;orthogonalLoop=1;jettySize=auto;html=1;exitX=0.5;exitY=1;exitDx=0;exitDy=0;fillColor=#FAE5C7;strokeColor=#A8201A;endArrow=none;endFill=0;labelBackgroundColor=none;fontColor=default;" parent="1" source="DWErfUBjFAyUowsWWpwN-8" target="DWErfUBjFAyUowsWWpwN-1" edge="1">
          <mxGeometry relative="1" as="geometry">
            <Array as="points">
              <mxPoint x="501" y="-291" />
              <mxPoint x="316" y="-291" />
            </Array>
          </mxGeometry>
        </mxCell>
        <mxCell id="DWErfUBjFAyUowsWWpwN-8" value="Esegue" style="rhombus;whiteSpace=wrap;html=1;fontSize=15;labelBackgroundColor=none;rounded=1;fillColor=#FAE5C7;strokeColor=#0F8B8D;fontColor=#143642;" parent="1" vertex="1">
          <mxGeometry x="451.5" y="-383" width="99" height="60" as="geometry" />
        </mxCell>
        <mxCell id="DWErfUBjFAyUowsWWpwN-11" style="edgeStyle=none;shape=connector;rounded=1;orthogonalLoop=1;jettySize=auto;html=1;labelBackgroundColor=none;fontFamily=Helvetica;fontSize=15;fontColor=default;endArrow=oval;endFill=1;strokeColor=#A8201A;" parent="1" edge="1">
          <mxGeometry relative="1" as="geometry">
            <mxPoint x="475" y="-418" as="sourcePoint" />
            <mxPoint x="418" y="-332" as="targetPoint" />
            <Array as="points">
              <mxPoint x="559" y="-418" />
              <mxPoint x="559" y="-276" />
              <mxPoint x="418" y="-277" />
            </Array>
          </mxGeometry>
        </mxCell>
        <mxCell id="DWErfUBjFAyUowsWWpwN-12" value="InserimentoPersona" style="text;html=1;align=center;verticalAlign=middle;resizable=0;points=[];autosize=1;strokeColor=none;fillColor=none;fontSize=15;fontFamily=Helvetica;labelBackgroundColor=none;rounded=1;fontColor=#143642;" parent="1" vertex="1">
          <mxGeometry x="75" y="-235" width="152" height="30" as="geometry" />
        </mxCell>
        <mxCell id="DWErfUBjFAyUowsWWpwN-13" value="RilevatoreClasse" style="text;html=1;align=center;verticalAlign=middle;resizable=0;points=[];autosize=1;strokeColor=none;fillColor=none;fontSize=15;fontFamily=Helvetica;labelBackgroundColor=none;rounded=1;fontColor=#143642;" parent="1" vertex="1">
          <mxGeometry x="96" y="-215" width="131" height="30" as="geometry" />
        </mxCell>
        <mxCell id="KmzG-ObylcXIyJbmqewU-1" value="ESPOSIZIONE" style="whiteSpace=wrap;html=1;rounded=1;shadow=0;glass=0;fontSize=15;points=[[0,0,0,0,0],[0,0.25,0,0,0],[0,0.5,0,0,0],[0,0.75,0,0,0],[0,1,0,0,0],[0.25,0,0,0,0],[0.25,1,0,0,0],[0.5,0,0,0,0],[0.5,1,0,0,0],[0.75,0,0,0,0],[0.75,1,0,0,0],[1,0,0,0,0],[1,0.25,0,0,0],[1,0.5,0,0,0],[1,0.75,0,0,0],[1,1,0,0,0]];movable=1;resizable=1;rotatable=1;deletable=1;editable=1;locked=0;connectable=1;labelBackgroundColor=none;fillColor=#FAE5C7;strokeColor=#0F8B8D;fontColor=#143642;" parent="1" vertex="1">
          <mxGeometry x="623" y="-1032" width="129" height="40" as="geometry" />
        </mxCell>
        <mxCell id="KmzG-ObylcXIyJbmqewU-3" style="edgeStyle=orthogonalEdgeStyle;rounded=0;orthogonalLoop=1;jettySize=auto;html=1;exitX=0.5;exitY=1;exitDx=0;exitDy=0;entryX=0;entryY=0.5;entryDx=0;entryDy=0;entryPerimeter=0;fillColor=#FAE5C7;strokeColor=#A8201A;endArrow=none;endFill=0;labelBackgroundColor=none;fontColor=default;" parent="1" source="KmzG-ObylcXIyJbmqewU-2" target="Dx_CMPOLSW68eJcPcujk-12" edge="1">
          <mxGeometry relative="1" as="geometry">
            <Array as="points">
              <mxPoint x="688" y="-806" />
              <mxPoint x="850" y="-806" />
            </Array>
          </mxGeometry>
        </mxCell>
        <mxCell id="KmzG-ObylcXIyJbmqewU-4" style="edgeStyle=orthogonalEdgeStyle;rounded=0;orthogonalLoop=1;jettySize=auto;html=1;exitX=0.5;exitY=0;exitDx=0;exitDy=0;fillColor=#FAE5C7;strokeColor=#A8201A;endArrow=none;endFill=0;labelBackgroundColor=none;fontColor=default;" parent="1" source="KmzG-ObylcXIyJbmqewU-2" target="KmzG-ObylcXIyJbmqewU-1" edge="1">
          <mxGeometry relative="1" as="geometry" />
        </mxCell>
        <mxCell id="KmzG-ObylcXIyJbmqewU-2" value="Esposta" style="rhombus;whiteSpace=wrap;html=1;fontSize=15;labelBackgroundColor=none;rounded=1;fillColor=#FAE5C7;strokeColor=#0F8B8D;fontColor=#143642;" parent="1" vertex="1">
          <mxGeometry x="637.5000000000002" y="-946.25" width="100" height="46.5" as="geometry" />
        </mxCell>
        <mxCell id="KmzG-ObylcXIyJbmqewU-5" value="1,N" style="text;html=1;align=center;verticalAlign=middle;resizable=0;points=[];autosize=1;strokeColor=none;fillColor=none;fontSize=15;fontFamily=Helvetica;rounded=1;labelBackgroundColor=none;fontColor=#143642;" parent="1" vertex="1">
          <mxGeometry x="651" y="-994" width="41" height="30" as="geometry" />
        </mxCell>
        <mxCell id="KmzG-ObylcXIyJbmqewU-6" style="edgeStyle=none;shape=connector;rounded=1;orthogonalLoop=1;jettySize=auto;html=1;labelBackgroundColor=none;fontFamily=Helvetica;fontSize=15;fontColor=default;endArrow=oval;endFill=0;strokeColor=#A8201A;entryX=0.324;entryY=1.123;entryDx=0;entryDy=0;entryPerimeter=0;exitX=0.5;exitY=0;exitDx=0;exitDy=0;exitPerimeter=0;" parent="1" source="KmzG-ObylcXIyJbmqewU-1" target="KmzG-ObylcXIyJbmqewU-7" edge="1">
          <mxGeometry relative="1" as="geometry">
            <mxPoint x="779.0251717851634" y="-1066" as="sourcePoint" />
            <mxPoint x="793" y="-1112" as="targetPoint" />
            <Array as="points" />
          </mxGeometry>
        </mxCell>
        <mxCell id="KmzG-ObylcXIyJbmqewU-7" value="&lt;span style=&quot;font-size: 15px;&quot;&gt;Tipo&lt;/span&gt;" style="text;html=1;align=center;verticalAlign=middle;resizable=0;points=[];autosize=1;strokeColor=none;fillColor=none;fontSize=15;fontFamily=Helvetica;labelBackgroundColor=none;rounded=1;fontColor=#143642;" parent="1" vertex="1">
          <mxGeometry x="672" y="-1096" width="50" height="30" as="geometry" />
        </mxCell>
        <mxCell id="KmzG-ObylcXIyJbmqewU-13" style="edgeStyle=none;shape=connector;rounded=1;orthogonalLoop=1;jettySize=auto;html=1;labelBackgroundColor=none;fontFamily=Helvetica;fontSize=15;fontColor=default;endArrow=oval;endFill=1;strokeColor=#A8201A;exitX=0.527;exitY=-0.1;exitDx=0;exitDy=0;exitPerimeter=0;" parent="1" edge="1">
          <mxGeometry relative="1" as="geometry">
            <mxPoint x="827" y="-823" as="sourcePoint" />
            <mxPoint x="859" y="-874" as="targetPoint" />
          </mxGeometry>
        </mxCell>
        <mxCell id="KmzG-ObylcXIyJbmqewU-14" style="edgeStyle=none;shape=connector;rounded=1;orthogonalLoop=1;jettySize=auto;html=1;labelBackgroundColor=none;fontFamily=Helvetica;fontSize=15;fontColor=default;endArrow=oval;endFill=1;strokeColor=#A8201A;" parent="1" edge="1">
          <mxGeometry relative="1" as="geometry">
            <mxPoint x="832" y="-818" as="sourcePoint" />
            <mxPoint x="642" y="-1053" as="targetPoint" />
            <Array as="points">
              <mxPoint x="907" y="-878" />
              <mxPoint x="752" y="-1051" />
            </Array>
          </mxGeometry>
        </mxCell>
        <mxCell id="KmzG-ObylcXIyJbmqewU-16" value="0,1" style="text;html=1;align=center;verticalAlign=middle;resizable=0;points=[];autosize=1;strokeColor=none;fillColor=none;fontSize=15;fontFamily=Helvetica;rounded=1;labelBackgroundColor=none;fontColor=#143642;arcSize=50;" parent="1" vertex="1">
          <mxGeometry x="219" y="-250" width="39" height="30" as="geometry" />
        </mxCell>
        <mxCell id="KmzG-ObylcXIyJbmqewU-17" value="0,1" style="text;html=1;align=center;verticalAlign=middle;resizable=0;points=[];autosize=1;strokeColor=none;fillColor=none;fontSize=15;fontFamily=Helvetica;rounded=1;labelBackgroundColor=none;fontColor=#143642;" parent="1" vertex="1">
          <mxGeometry x="61" y="-488" width="39" height="30" as="geometry" />
        </mxCell>
        <mxCell id="INVqEnxePdasgGOuT_wJ-1" value="" style="edgeStyle=none;shape=connector;rounded=1;orthogonalLoop=1;jettySize=auto;html=1;labelBackgroundColor=none;fontFamily=Helvetica;fontSize=15;fontColor=default;endArrow=oval;endFill=0;entryX=0.481;entryY=-0.055;entryDx=0;entryDy=0;entryPerimeter=0;strokeColor=#A8201A;exitX=0;exitY=1;exitDx=0;exitDy=0;exitPerimeter=0;" edge="1" parent="1" source="IGpdcPXpx3QODBAOmaDT-8" target="KA5vXZ2nPaFK-a-9JE_G-194">
          <mxGeometry relative="1" as="geometry">
            <mxPoint x="1302" y="-389" as="sourcePoint" />
            <mxPoint x="1262" y="-296" as="targetPoint" />
          </mxGeometry>
        </mxCell>
        <mxCell id="INVqEnxePdasgGOuT_wJ-2" value="Dirigente" style="rhombus;whiteSpace=wrap;html=1;fontFamily=Helvetica;fontSize=15;align=center;verticalAlign=middle;labelBackgroundColor=none;rounded=1;fillColor=#FAE5C7;strokeColor=#0F8B8D;fontColor=#143642;" vertex="1" parent="1">
          <mxGeometry x="1031.0000000000002" y="-453.5" width="140" height="71" as="geometry" />
        </mxCell>
        <mxCell id="INVqEnxePdasgGOuT_wJ-3" value="" style="endArrow=none;html=1;rounded=0;labelBackgroundColor=none;strokeColor=#A8201A;fontColor=default;" edge="1" parent="1" source="IGpdcPXpx3QODBAOmaDT-12">
          <mxGeometry width="50" height="50" relative="1" as="geometry">
            <mxPoint x="1136" y="-406" as="sourcePoint" />
            <mxPoint x="1035" y="-418" as="targetPoint" />
            <Array as="points" />
          </mxGeometry>
        </mxCell>
      </root>
    </mxGraphModel>
  </diagram>
</mxfile>
